<svg width="135" height="36" viewBox="0 0 135 36" fill="none" xmlns="http://www.w3.org/2000/svg">
<g clip-path="url(#clip0_4533_3080)">
<path d="M117.864 26.6833C116.998 26.6833 116.329 26.6833 115.92 26.0423C114.995 23.5123 113.107 18.3583 112.309 16.2543L111.678 14.5163C110.581 11.4993 108.055 9.77132 104.688 9.77132C102.691 9.77132 100.605 10.6333 99.096 11.7343L100.43 12.8003C101.293 12.1063 102.55 11.4063 103.719 11.4063C106.448 11.4063 107.911 12.6783 108.868 15.3103L109.54 17.1583C108.643 16.5983 107.051 15.8793 104.932 15.8793C101.646 15.8793 98.32 18.0333 98.32 22.1493C98.32 26.2263 101.077 28.3803 106.295 28.3803C109.718 28.3803 111.74 27.0643 112.785 26.0703L113.41 27.7903H118.496L118.074 26.6863H117.864V26.6833ZM106.007 27.3553C103.059 27.3553 101.271 25.2633 101.271 22.2723C101.271 20.3403 101.584 17.0953 105.488 17.0953C107.15 17.0886 108.767 17.6353 110.084 18.6493L112.194 24.4473C111.431 26.4273 108.614 27.3553 106.007 27.3553ZM76.4 26.6833C75.535 26.6833 74.866 26.6833 74.456 26.0423C73.531 23.5123 71.643 18.3583 70.846 16.2543L70.214 14.5163C69.117 11.4993 66.591 9.77132 63.224 9.77132C61.227 9.77132 59.41 10.6333 57.901 11.7343L59.235 12.8003C60.098 12.1063 61.355 11.4063 62.524 11.4063C65.253 11.4063 66.447 12.6783 67.404 15.3103L68.076 17.1583C67.179 16.5983 65.588 15.8793 63.468 15.8793C60.183 15.8793 57.128 18.0333 57.128 22.1493C57.128 26.2263 59.617 28.3803 64.834 28.3803C68.257 28.3803 70.28 27.0643 71.324 26.0703L71.949 27.7903H77.035L76.613 26.6863H76.403L76.4 26.6833ZM64.543 27.3553C61.595 27.3553 60.076 25.2633 60.076 22.2723C60.076 20.3403 60.12 17.0953 64.025 17.0953C65.6868 17.0885 67.3035 17.6353 68.62 18.6493L70.73 24.4473C69.967 26.4273 67.15 27.3553 64.543 27.3553ZM44.474 26.6833C43.608 26.6833 42.939 26.6833 42.53 26.0423C41.605 23.5123 39.716 18.3583 38.92 16.2543L38.288 14.5163C37.191 11.4993 34.665 9.77132 31.298 9.77132C29.3 9.77132 27.215 10.6333 25.706 11.7343L27.04 12.8003C27.903 12.1063 29.16 11.4063 30.329 11.4063C33.058 11.4063 34.521 12.6783 35.477 15.3103L36.15 17.1583C35.252 16.5983 33.661 15.8793 31.542 15.8793C28.256 15.8793 24.933 18.0333 24.933 22.1493C24.933 26.2263 27.691 28.3803 32.908 28.3803C36.331 28.3803 38.353 27.0643 39.398 26.0703L40.023 27.7903H45.109L44.687 26.6863H44.477L44.474 26.6833ZM32.617 27.3553C29.669 27.3553 27.881 25.2633 27.881 22.2723C27.881 20.3403 28.194 17.0953 32.098 17.0953C33.7601 17.0883 35.3772 17.6351 36.694 18.6493L38.804 24.4473C38.041 26.4273 35.224 27.3553 32.617 27.3553ZM91.034 25.8573L85.834 10.3083H82.39L85.663 19.5483L82.762 26.5043L77.348 10.3083H73.903L80.039 27.6333L80.092 27.7803H83.259L86.166 20.9683L88.58 27.7803H91.746L97.783 10.3083H96.535L91.034 25.8573ZM134.414 21.2593V10.3023H131.519L131.788 20.7333V22.2313C131.788 24.4793 129.859 26.6203 127.637 26.9673C127.271 27.0233 125.999 27.0143 125.542 26.9673C123.307 26.7363 121.391 24.4793 121.391 22.2313V20.7343L121.66 10.3023H118.765V23.6103C118.765 25.6293 120.412 29.0053 125.811 29.0053H127.368C128.906 29.0053 130.678 28.1483 131.725 27.2853C131.582 28.6453 131.444 30.0273 131.028 30.9503C130.45 32.2373 129.134 33.7723 126.102 33.7723C123.151 33.7723 120.062 31.2343 119.768 30.7903L119.696 30.6803L118.768 30.7653L118.906 31.0493C118.927 31.0903 121.269 35.2133 126.264 35.4823C129.978 35.6823 132.223 34.1853 133.467 31.0343C133.542 30.8403 133.614 30.5903 133.679 30.3053C134.151 28.4523 134.329 25.9453 134.389 24.0413C134.404 23.8913 134.414 23.7473 134.414 23.6063V23.0193C134.43 21.9623 134.414 21.2623 134.414 21.2623V21.2593ZM49.37 13.3073V10.2343H46.23V27.7803H49.64V14.7043C50.257 13.6693 51.757 12.5223 53.57 12.5223C54.586 12.5223 55.027 12.7533 55.736 13.1353V10.2043C55.206 10.0143 55.252 9.89832 54.189 9.89832C52.598 9.89832 50.122 12.2333 49.372 13.3063H49.369L49.37 13.3073ZM13.008 25.2103C6.84 25.2103 2.808 18.7143 2.808 12.8813C2.808 9.52732 3.573 6.76732 5.533 4.89132C7.26 3.24432 9.65 2.33432 12.273 2.33432C14.823 2.33432 16.787 3.93432 17.981 5.27532C18.7834 6.17606 19.4645 7.17789 20.007 8.25532L20.113 8.48032L23.052 6.61732C22.88 6.24532 21.804 5.04132 21.472 4.69132C19.573 2.70632 17.34 0.924316 12.346 0.924316C7.609 0.924316 4.702 3.25932 3.098 5.21932C1.128 7.62632 0 10.8273 0 14.0003C0 16.0003 0.347 19.8403 2.667 23.0843C4.827 26.1073 8.162 27.7043 12.31 27.7043C18.369 27.7043 21.623 23.5543 23.145 20.7023L21.81 20.1373C19.394 23.5443 16.496 25.2103 13.01 25.2103H13.008Z" fill="white"/>
</g>
<defs>
<clipPath id="clip0_4533_3080">
<rect width="135" height="35" fill="white" transform="translate(0 0.924316)"/>
</clipPath>
</defs>
</svg>
