<svg width="118" height="36" viewBox="0 0 118 36" fill="none" xmlns="http://www.w3.org/2000/svg">
<g clip-path="url(#clip0_4533_3070)">
<mask id="mask0_4533_3070" style="mask-type:luminance" maskUnits="userSpaceOnUse" x="0" y="0" width="118" height="36">
<path d="M117.118 0.924316H0V35.9243H117.118V0.924316Z" fill="white"/>
</mask>
<g mask="url(#mask0_4533_3070)">
<path d="M67.7031 11.646C67.8804 11.2958 67.8028 10.8591 67.4837 10.633C66.5217 9.94809 65.185 9.48925 63.9016 9.48925C63.2433 9.48925 62.6648 9.58235 62.1372 9.7486C61.5343 9.94144 61.3548 10.7128 61.8313 11.1295C62.5318 11.7435 63.2101 12.5016 63.7553 13.1954L63.6822 13.2685C60.9292 10.5887 58.5419 9.48704 56.5226 9.48704C50.9479 9.48704 50.1964 16.1102 47.818 20.0757C47.5166 20.5811 46.7386 20.3372 46.7674 19.7498C46.9336 16.3208 47.5543 13.4636 48.5362 11.462C48.6559 11.216 48.5961 10.9212 48.3811 10.7549C47.408 10.0035 45.9783 9.48704 44.5197 9.48704C38.996 9.48704 37.5574 23.5469 36.9678 23.5757C36.6597 23.5912 35.1968 16.9946 39.8538 11.1384C40.0467 10.8968 39.9358 10.5288 39.6721 10.367C38.812 9.84391 37.655 9.48704 36.3693 9.48704C32.5324 9.48704 30.7547 12.8008 30.2914 17.2717C30.2914 17.2717 30.1629 18.4576 30.1474 19.9383C29.8237 20.3395 29.5444 20.3616 29.3095 20.2375C29.2164 20.1688 29.1299 20.0823 29.0546 19.9937C27.9662 18.7236 27.7845 12.608 29.8481 5.75651C30.1562 4.73466 30.4577 4.74796 30.3956 5.45727C30.3579 5.90281 30.0786 6.95126 29.9789 7.5453C29.8836 8.1061 30.5862 8.43859 30.9564 8.00857C31.8918 6.92466 32.4814 5.5548 32.4814 4.28248C32.4814 2.45379 31.249 0.922119 28.0372 0.922119C26.2595 0.922119 24.832 2.08362 23.6417 3.13872C23.6417 3.13207 23.6439 3.12542 23.6461 3.11877C23.5109 3.23846 23.3779 3.35594 23.2493 3.4712C23.2139 3.50224 23.174 3.52884 23.1318 3.54879C22.9988 3.6042 22.8481 3.60642 22.7107 3.551C22.3893 3.42244 21.762 3.21408 21.7598 3.22295C5.93329 -2.45375 4.51467 14.0842 14.2389 14.0842C16.1762 14.0842 16.2626 13.0158 16.2626 13.0158C16.3202 12.7055 16.0964 12.4373 15.7905 12.3553C13.3168 11.6881 13.647 6.10452 20.2303 5.29324C22.8924 4.96519 15.673 22.3965 6.41873 22.4142C4.91588 22.4164 4.32848 21.696 3.89181 20.0868C3.81645 19.8097 3.51721 19.6146 3.2357 19.6656C1.22525 20.0314 0.00390625 22.2989 0.00390625 24.6928C0.00390625 27.5678 1.8326 30.6289 6.27687 30.6289C14.6401 30.6289 14.5093 22.8021 16.6018 20.0491C16.6018 20.0491 15.8636 21.4145 15.8237 22.9661C15.7971 23.9747 16.9741 25.2847 19.0023 24.1764C20.2414 23.4981 20.1483 23.8505 20.2724 25.3977C20.4653 27.8116 22.9479 29.4341 25.6122 29.4341C28.0416 29.4341 29.8193 27.836 31.034 25.7191C31.8586 27.8515 33.2905 29.0618 35.4162 29.0618C37.5419 29.0618 39.9314 26.4174 41.2547 22.4896C41.0153 23.62 40.4878 25.4221 39.7319 26.7299C39.6322 26.9028 39.6166 27.1156 39.7186 27.2863C40.5188 28.6384 41.8842 29.0595 43.0546 29.0595C45.7987 29.0595 47.7582 26.5348 49.0017 23.8195C49.4073 26.6745 50.6132 29.0551 52.5992 29.0595C56.4916 29.0684 57.724 23.0171 59.6081 18.6837C62.1926 12.7321 57.2097 23.7242 58.2914 27.4082C59.136 30.2853 62.1926 32.8144 60.0802 33.6479C58.2515 34.3705 58.7481 30.1124 58.3291 28.5808C58.2183 28.1729 57.5046 27.9557 57.0878 28.0288C55.0619 28.3813 52.4529 30.0348 52.4529 32.4376C52.4529 34.8404 55.3899 35.9265 59.6857 35.9265C65.7791 35.9265 66.9916 33.8718 66.9916 30.7508C66.9916 28.4389 66.0008 26.0139 66.0008 19.4063C66.0008 16.3097 66.617 13.8005 67.7097 11.6504L67.7031 11.646ZM19.7892 18.2559C19.7116 18.861 19.6895 19.4462 19.7139 20.089C19.7294 20.5345 19.3592 20.9003 18.9137 20.8714C18.8272 20.867 18.743 20.8581 18.6632 20.8471L18.6344 20.8426C18.0847 20.7717 17.8076 20.1488 18.1179 19.69C19.1154 18.2204 19.9178 16.6045 20.5562 14.5719L20.6537 14.5852C20.2968 15.8331 19.92 17.2274 19.7892 18.2536V18.2559ZM59.1825 13.9978C58.522 16.0636 57.0878 19.5393 56.629 20.6365C56.5603 20.8005 56.3253 20.8094 56.25 20.6476C55.5163 19.0339 57.2762 14.2593 58.799 13.6498C59.0251 13.5589 59.2557 13.765 59.1825 13.9978Z" fill="white"/>
<path d="M115.518 16.8349C114.574 18.9385 113.286 21.5673 112.419 21.5673C111.87 21.5673 111.575 20.7228 111.575 19.548C111.575 17.7038 111.861 15.7311 112.375 13.8093C112.442 13.5566 112.672 13.3815 112.931 13.3726C116.143 13.2706 117.119 12.0271 117.119 10.48C117.119 9.99231 116.961 9.50466 116.737 9.08794C116.626 8.88402 116.414 8.75989 116.183 8.77319L114.603 8.85742C114.188 8.87958 113.887 8.46951 114.033 8.08161C114.21 7.60726 114.403 7.13069 114.574 6.74722C114.687 6.49453 114.609 6.19529 114.383 6.03791C113.266 5.2621 111.876 4.93848 110.4 4.93848C107.567 4.93848 105.521 6.20194 104.194 9.25419C104.103 9.46255 103.899 9.59997 103.673 9.61106C101.336 9.72189 100.341 10.8634 100.341 11.8409C100.341 12.8184 101.082 13.3615 102.525 13.3815C102.584 13.3815 102.642 13.3748 102.7 13.3571C103.506 13.111 109.908 11.2358 109.604 13.7383C109.241 16.7374 105.457 13.4923 103.719 13.5632C103.449 13.5743 103.01 13.9245 102.955 14.4077C102.861 15.2035 102.932 16.8216 100.379 21.6449C100.709 20.3216 100.709 19.0737 100.709 18.0097C100.709 14.1462 98.579 11.3134 93.8288 10.3115C93.7025 10.2849 93.5739 10.3425 93.5074 10.4534C92.9821 11.3245 91.5568 15.4739 90.4818 14.4432C89.2117 13.2263 93.002 12.0183 93.7158 8.58478C94.0749 6.85805 91.6876 5.59459 89.9254 5.59459C86.7313 5.59459 85.0644 9.05691 85.2883 12.3552C86.084 24.0388 80.1946 21.5585 84.8849 11.5616C85.0578 11.1937 84.9292 10.757 84.5945 10.5243C83.6325 9.85932 82.3025 9.41378 80.9504 9.41378C75.4267 9.41378 73.9881 23.4736 73.3985 23.5024C73.0948 23.5179 71.6762 17.1386 76.0584 11.3555C76.3709 10.9432 76.2313 10.3447 75.7702 10.1076C74.9545 9.68864 73.926 9.41378 72.8 9.41378C68.9631 9.41378 67.1854 12.7276 66.7221 17.1984C66.7221 17.1984 66.5935 18.3843 66.578 19.865C66.5182 22.0062 66.8086 23.8327 67.3782 25.4907C67.3804 25.4996 67.3849 25.5084 67.3893 25.5173C68.4776 27.9799 69.6768 28.9796 71.8447 28.9796C74.0125 28.9796 76.3599 26.3352 77.6832 22.4074C77.4526 23.4958 76.9539 25.2092 76.2424 26.5037C76.085 26.7896 76.0916 27.1399 76.2756 27.4081C77.0891 28.6006 78.3725 28.9796 79.483 28.9796C81.5578 28.9796 83.1847 27.5344 84.3928 25.657C89.2649 18.9185 87.3652 17.5841 91.8937 17.9676C92.592 18.0274 93.3146 18.2181 93.9773 18.5306C94.6401 18.8431 94.1946 19.8495 93.5119 19.5813C92.8668 19.3286 92.2151 19.1446 91.6787 19.1446C88.6686 19.1446 86.8333 21.6405 86.8333 24.1009C86.8333 26.5613 88.6686 29.0572 93.1483 29.0572C97.6281 29.0572 100.397 26.466 101.962 23.6443C102.219 23.181 102.904 23.2852 103.023 23.8017C103.726 26.845 105.386 29.0572 108.826 29.0572C114.7 29.0572 116.72 19.364 116.72 17.7127C116.72 17.3558 116.669 17.0632 116.573 16.8349C116.38 16.3783 115.727 16.3805 115.523 16.8349H115.518Z" fill="white"/>
</g>
</g>
<defs>
<clipPath id="clip0_4533_3070">
<rect width="118" height="35" fill="white" transform="translate(0 0.924316)"/>
</clipPath>
</defs>
</svg>
