<svg width="151" height="22" viewBox="0 0 151 22" fill="none" xmlns="http://www.w3.org/2000/svg">
<g clip-path="url(#clip0_4533_3090)">
<path d="M0 11.4743V11.4243C0 5.79932 4.34216 1.17432 10.2943 1.17432C16.2465 1.17432 20.5399 5.72432 20.5399 11.3743V11.4243C20.5399 17.0493 16.1977 21.6743 10.2456 21.6743C4.29338 21.6743 0 17.1243 0 11.4743ZM16.1002 11.4743V11.4243C16.1002 8.02432 13.6607 5.19932 10.2456 5.19932C6.83037 5.19932 4.43974 7.97432 4.43974 11.3743V11.4243C4.43974 14.8243 6.87916 17.6493 10.2943 17.6493C13.7095 17.6493 16.1002 14.8743 16.1002 11.4743Z" fill="white"/>
<path d="M33.5175 16.2744L29.3461 9.77441C29.1022 9.39941 28.5167 9.57441 28.5167 10.0244V21.3244H24.3453V1.52441H28.9314L33.6395 9.27441C33.8103 9.57441 34.225 9.57441 34.4201 9.27441L39.1282 1.52441H43.7143V21.3494H39.4941V9.94941C39.4941 9.49941 38.9087 9.29941 38.6647 9.69941L34.3226 16.2994C34.103 16.5494 33.7127 16.5494 33.5175 16.2744Z" fill="white"/>
<path d="M47.4711 11.4743V11.4243C47.4711 5.79932 51.8132 1.17432 57.7654 1.17432C63.7176 1.17432 68.011 5.72432 68.011 11.3743V11.4243C68.011 17.0493 63.6688 21.6743 57.7166 21.6743C51.7644 21.6743 47.4711 17.1243 47.4711 11.4743ZM63.5712 11.4743V11.4243C63.5712 8.02432 61.1318 5.19932 57.7166 5.19932C54.3014 5.19932 51.9108 7.97432 51.9108 11.3743V11.4243C51.9108 14.8243 54.3502 17.6493 57.7654 17.6493C61.1806 17.6493 63.5712 14.8743 63.5712 11.4743Z" fill="white"/>
<path d="M76.5246 14.9994C76.2807 14.9994 76.0611 15.1994 76.0611 15.4744V21.3494H71.8165V1.52441H80.6472C83.111 1.52441 85.0138 2.22441 86.2823 3.52441C87.3556 4.62441 87.9411 6.17441 87.9411 8.04941V8.09941C87.9411 11.2994 86.2579 13.2994 83.7941 14.2494L88.5265 21.3244H83.5501L79.5495 15.1994C79.4763 15.0744 79.3299 14.9994 79.1836 14.9994H76.5246ZM80.3789 11.1494C82.4524 11.1494 83.6477 10.0244 83.6477 8.34941V8.29941C83.6477 6.42441 82.3792 5.47441 80.3057 5.47441H76.5246C76.2807 5.47441 76.0611 5.67441 76.0611 5.94941V10.6994C76.0611 10.9494 76.2563 11.1744 76.5246 11.1744H80.3789V11.1494Z" fill="white"/>
<path d="M91.7953 1.52441H99.699C104.31 1.52441 107.115 4.32441 107.115 8.37441V8.42441C107.115 12.9994 103.626 15.3994 99.2843 15.3994H96.5034C96.2594 15.3994 96.0399 15.5994 96.0399 15.8744V21.3494H91.7953V1.52441ZM99.4063 11.4994C101.529 11.4994 102.773 10.1994 102.773 8.49941V8.44941C102.773 6.49941 101.455 5.44941 99.3087 5.44941H96.479C96.235 5.44941 96.0155 5.64941 96.0155 5.92441V11.0494C96.0155 11.2994 96.2106 11.5244 96.479 11.5244H99.4063V11.4994Z" fill="white"/>
<path d="M110.237 1.52441H114.482V8.89941C114.482 9.14941 114.677 9.37441 114.945 9.37441H121.873C122.117 9.37441 122.337 9.17441 122.337 8.89941V1.52441H126.606V21.3494H122.361V13.8494C122.361 13.5994 122.166 13.3744 121.898 13.3744H114.97C114.726 13.3744 114.506 13.5744 114.506 13.8494V21.3494H110.262V1.52441H110.237Z" fill="white"/>
<path d="M130.387 11.4743V11.4243C130.387 5.79932 134.729 1.17432 140.681 1.17432C146.658 1.17432 150.927 5.72432 150.927 11.3743V11.4243C150.927 17.0493 146.585 21.6743 140.633 21.6743C134.656 21.6743 130.387 17.1243 130.387 11.4743ZM146.487 11.4743V11.4243C146.487 8.02432 144.048 5.19932 140.633 5.19932C137.217 5.19932 134.827 7.97432 134.827 11.3743V11.4243C134.827 14.8243 137.266 17.6493 140.681 17.6493C144.096 17.6493 146.487 14.8743 146.487 11.4743Z" fill="white"/>
</g>
<defs>
<clipPath id="clip0_4533_3090">
<rect width="151" height="21" fill="white" transform="translate(0 0.924316)"/>
</clipPath>
</defs>
</svg>
