<svg width="48" height="49" viewBox="0 0 48 49" fill="none" xmlns="http://www.w3.org/2000/svg">
<path fill-rule="evenodd" clip-rule="evenodd" d="M24 4.3606C26.7614 4.3606 29 6.59917 29 9.3606C29 12.122 26.7614 14.3606 24 14.3606C21.2386 14.3606 19 12.122 19 9.3606C19 6.59917 21.2386 4.3606 24 4.3606ZM24 7.3606C25.1046 7.3606 26 8.25603 26 9.3606C26 10.4652 25.1046 11.3606 24 11.3606C22.8954 11.3606 22 10.4652 22 9.3606C22 8.25603 22.8954 7.3606 24 7.3606Z" fill="#FF33FF"/>
<path fill-rule="evenodd" clip-rule="evenodd" d="M24 17.3606C28.4183 17.3606 32 20.9423 32 25.3606C32 27.944 30.7754 30.2415 28.8751 31.7041C33.8722 33.4987 37.5 37.9747 37.5 43.3606C37.5 44.189 36.8284 44.8606 36 44.8606C35.1716 44.8606 34.5 44.189 34.5 43.3606C34.5 38.2341 29.9245 33.8606 24 33.8606C18.0755 33.8606 13.5 38.2341 13.5 43.3606C13.5 44.189 12.8284 44.8606 12 44.8606C11.1716 44.8606 10.5 44.189 10.5 43.3606C10.5 37.9747 14.1278 33.4987 19.1249 31.7041C17.2246 30.2415 16 27.944 16 25.3606C16 20.9423 19.5817 17.3606 24 17.3606ZM24 20.3606C26.7614 20.3606 29 22.5992 29 25.3606C29 28.122 26.7614 30.3606 24 30.3606C21.2386 30.3606 19 28.122 19 25.3606C19 22.5992 21.2386 20.3606 24 20.3606Z" fill="#FF33FF"/>
<path fill-rule="evenodd" clip-rule="evenodd" d="M14 17.3606C14 14.5992 11.7614 12.3606 9 12.3606C6.23858 12.3606 4 14.5992 4 17.3606C4 20.122 6.23858 22.3606 9 22.3606C11.7614 22.3606 14 20.122 14 17.3606ZM11 17.3606C11 16.256 10.1046 15.3606 9 15.3606C7.89543 15.3606 7 16.256 7 17.3606C7 18.4652 7.89543 19.3606 9 19.3606C10.1046 19.3606 11 18.4652 11 17.3606Z" fill="#FF33FF"/>
<path fill-rule="evenodd" clip-rule="evenodd" d="M39 12.3606C41.7614 12.3606 44 14.5992 44 17.3606C44 20.122 41.7614 22.3606 39 22.3606C36.2386 22.3606 34 20.122 34 17.3606C34 14.5992 36.2386 12.3606 39 12.3606ZM39 15.3606C40.1046 15.3606 41 16.256 41 17.3606C41 18.4652 40.1046 19.3606 39 19.3606C37.8954 19.3606 37 18.4652 37 17.3606C37 16.256 37.8954 15.3606 39 15.3606Z" fill="#FF33FF"/>
</svg>
