<svg width="48" height="49" viewBox="0 0 48 49" fill="none" xmlns="http://www.w3.org/2000/svg">
<path d="M7 5.8606C7 5.03217 6.32843 4.3606 5.5 4.3606C4.67157 4.3606 4 5.03217 4 5.8606V44.3606H29.5C30.3284 44.3606 31 43.689 31 42.8606C31 42.0322 30.3284 41.3606 29.5 41.3606H7V5.8606Z" fill="#FF33FF"/>
<path d="M43.5805 36.888L40.0508 34.8421L41.8315 30.563C41.8853 30.446 41.9171 30.321 41.9171 30.1961C41.9171 29.7354 41.5502 29.3606 41.0879 29.3606C40.8776 29.3684 40.7063 29.4309 40.5645 29.5401L40.5327 29.5654L40.5106 29.5871L34.2609 35.4981C34.0652 35.6776 33.9796 35.9431 34.0041 36.2009C34.0334 36.4585 34.1826 36.6927 34.4175 36.8255L37.9569 38.8791L36.1517 43.2051C35.9952 43.5642 36.1199 43.9859 36.4477 44.2124C36.5969 44.3138 36.7608 44.3606 36.9247 44.3606C37.1351 44.3606 37.3381 44.2825 37.4946 44.1343L43.7444 38.2233C43.9327 38.0436 44.0257 37.7781 43.9939 37.5205C43.9547 37.2471 43.808 37.0129 43.5805 36.888Z" fill="#FF33FF"/>
<path d="M41 18.4819V22.3606C41 23.189 41.6716 23.8606 42.5 23.8606C43.3284 23.8606 44 23.189 44 22.3606V13.3606H35C34.1716 13.3606 33.5 14.0322 33.5 14.8606C33.5 15.689 34.1716 16.3606 35 16.3606H38.8787L28 27.2393L20 19.2393L10.9393 28.2999C10.3536 28.8857 10.3536 29.8355 10.9393 30.4213C11.5251 31.007 12.4749 31.007 13.0607 30.4213L20 23.4819L28 31.4819L41 18.4819Z" fill="#FF33FF"/>
</svg>
