<svg width="48" height="49" viewBox="0 0 48 49" fill="none" xmlns="http://www.w3.org/2000/svg">
<path fill-rule="evenodd" clip-rule="evenodd" d="M24 4.38646V24.3606L43.9741 24.3606C43.9913 24.0294 44 23.696 44 23.3606C44 23.0252 43.9913 22.6918 43.9741 22.3606C43.9567 22.0249 43.9306 21.6915 43.896 21.3606C42.9654 12.4645 35.8961 5.39524 27 4.4646C26.6691 4.42999 26.3357 4.40387 26 4.38646C25.6688 4.36929 25.3354 4.3606 25 4.3606C24.6646 4.3606 24.3312 4.36929 24 4.38646ZM27 21.3606C26.9999 21.3605 27.0001 21.3606 27 21.3606V21.3606ZM27 19.9465C26.9999 19.9466 27.0001 19.9465 27 19.9465L31.5859 15.3606H30.0002C29.4479 15.3606 29.0002 14.9129 29.0002 14.3606C29.0002 13.8083 29.4479 13.3606 30.0002 13.3606H35.0001V18.3606C35.0001 18.9129 34.5524 19.3606 34.0001 19.3606C33.4478 19.3606 33.0001 18.9129 33.0001 18.3606V16.7748L28.4143 21.3606L40.8762 21.3606C39.9737 14.1232 34.2374 8.38688 27 7.48438V19.9465Z" fill="#FF33FF"/>
<path d="M38.1684 27.4581C36.7496 33.978 30.945 38.8606 24 38.8606C15.9919 38.8606 9.5 32.3687 9.5 24.3606C9.5 17.3581 14.4638 11.515 21.0647 10.1579V7.10571C12.7972 8.50195 6.5 15.6959 6.5 24.3606C6.5 34.0256 14.335 41.8606 24 41.8606C32.608 41.8606 39.7644 35.6456 41.2267 27.4581H38.1684Z" fill="#FF33FF"/>
</svg>
