<svg width="48" height="49" viewBox="0 0 48 49" fill="none" xmlns="http://www.w3.org/2000/svg">
<path fill-rule="evenodd" clip-rule="evenodd" d="M13 4.3606C8.02944 4.3606 4 8.39003 4 13.3606C4 18.3312 8.02944 22.3606 13 22.3606C17.9706 22.3606 22 18.3312 22 13.3606C22 8.39003 17.9706 4.3606 13 4.3606ZM7 13.3606C7 16.6743 9.68629 19.3606 13 19.3606C16.3137 19.3606 19 16.6743 19 13.3606C19 10.0469 16.3137 7.3606 13 7.3606C9.68629 7.3606 7 10.0469 7 13.3606Z" fill="#FF33FF"/>
<path fill-rule="evenodd" clip-rule="evenodd" d="M35 4.3606C30.0294 4.3606 26 8.39003 26 13.3606C26 18.3312 30.0294 22.3606 35 22.3606C39.9706 22.3606 44 18.3312 44 13.3606C44 8.39003 39.9706 4.3606 35 4.3606ZM29 13.3606C29 16.6743 31.6863 19.3606 35 19.3606C38.3137 19.3606 41 16.6743 41 13.3606C41 10.0469 38.3137 7.3606 35 7.3606C31.6863 7.3606 29 10.0469 29 13.3606Z" fill="#FF33FF"/>
<path fill-rule="evenodd" clip-rule="evenodd" d="M4 35.3606C4 30.39 8.02944 26.3606 13 26.3606C17.9706 26.3606 22 30.39 22 35.3606C22 40.3312 17.9706 44.3606 13 44.3606C8.02944 44.3606 4 40.3312 4 35.3606ZM13 41.3606C9.68629 41.3606 7 38.6743 7 35.3606C7 32.0469 9.68629 29.3606 13 29.3606C16.3137 29.3606 19 32.0469 19 35.3606C19 38.6743 16.3137 41.3606 13 41.3606Z" fill="#FF33FF"/>
<path d="M35 28.8606C35.8284 28.8606 36.5 29.5322 36.5 30.3606V33.8606H40C40.8284 33.8606 41.5 34.5322 41.5 35.3606C41.5 36.189 40.8284 36.8606 40 36.8606H36.5V40.3606C36.5 41.189 35.8284 41.8606 35 41.8606C34.1716 41.8606 33.5 41.189 33.5 40.3606V36.8606H30C29.1716 36.8606 28.5 36.189 28.5 35.3606C28.5 34.5322 29.1716 33.8606 30 33.8606H33.5V30.3606C33.5 29.5322 34.1716 28.8606 35 28.8606Z" fill="#FF33FF"/>
</svg>
