<svg width="48" height="49" viewBox="0 0 48 49" fill="none" xmlns="http://www.w3.org/2000/svg">
<path d="M8 4.3606C10.2091 4.3606 12 6.15146 12 8.3606C12 9.1024 11.7981 9.79705 11.4462 10.3926L21.968 20.9144C22.2863 20.7263 22.633 20.5811 23 20.4866V12.2346C21.2748 11.7905 20 10.2244 20 8.3606C20 6.15146 21.7909 4.3606 24 4.3606C26.2091 4.3606 28 6.15146 28 8.3606C28 10.2244 26.7252 11.7905 25 12.2346V20.4866C26.4056 20.8484 27.5122 21.955 27.874 23.3606H36.126C36.5701 21.6354 38.1362 20.3606 40 20.3606C42.2091 20.3606 44 22.1515 44 24.3606C44 26.5697 42.2091 28.3606 40 28.3606C38.1362 28.3606 36.5701 27.0858 36.126 25.3606H27.874C27.4299 27.0858 25.8638 28.3606 24 28.3606C23.2582 28.3606 22.5635 28.1587 21.968 27.8068L11.4462 38.3286C11.7981 38.9241 12 39.6188 12 40.3606C12 42.5697 10.2091 44.3606 8 44.3606C5.79086 44.3606 4 42.5697 4 40.3606C4 38.1515 5.79086 36.3606 8 36.3606C8.74181 36.3606 9.43645 36.5625 10.032 36.9144L20.5538 26.3926C20.2019 25.7971 20 25.1024 20 24.3606C20 23.6188 20.2019 22.9241 20.5538 22.3286L10.032 11.8068C9.43645 12.1587 8.74181 12.3606 8 12.3606C5.79086 12.3606 4 10.5697 4 8.3606C4 6.15146 5.79086 4.3606 8 4.3606Z" fill="#FF33FF"/>
<path fill-rule="evenodd" clip-rule="evenodd" d="M40 4.3606C42.2091 4.3606 44 6.15146 44 8.3606C44 10.5697 42.2091 12.3606 40 12.3606C37.7909 12.3606 36 10.5697 36 8.3606C36 6.15146 37.7909 4.3606 40 4.3606ZM40 6.3606C41.1046 6.3606 42 7.25603 42 8.3606C42 9.46517 41.1046 10.3606 40 10.3606C38.8954 10.3606 38 9.46517 38 8.3606C38 7.25603 38.8954 6.3606 40 6.3606Z" fill="#FF33FF"/>
<path fill-rule="evenodd" clip-rule="evenodd" d="M44 40.3606C44 38.1515 42.2091 36.3606 40 36.3606C37.7909 36.3606 36 38.1515 36 40.3606C36 42.5697 37.7909 44.3606 40 44.3606C42.2091 44.3606 44 42.5697 44 40.3606ZM42 40.3606C42 39.256 41.1046 38.3606 40 38.3606C38.8954 38.3606 38 39.256 38 40.3606C38 41.4652 38.8954 42.3606 40 42.3606C41.1046 42.3606 42 41.4652 42 40.3606Z" fill="#FF33FF"/>
<path fill-rule="evenodd" clip-rule="evenodd" d="M24 36.3606C26.2091 36.3606 28 38.1515 28 40.3606C28 42.5697 26.2091 44.3606 24 44.3606C21.7909 44.3606 20 42.5697 20 40.3606C20 38.1515 21.7909 36.3606 24 36.3606ZM22 40.3606C22 39.256 22.8954 38.3606 24 38.3606C25.1046 38.3606 26 39.256 26 40.3606C26 41.4652 25.1046 42.3606 24 42.3606C22.8954 42.3606 22 41.4652 22 40.3606Z" fill="#FF33FF"/>
<path fill-rule="evenodd" clip-rule="evenodd" d="M12 24.3606C12 22.1515 10.2091 20.3606 8 20.3606C5.79086 20.3606 4 22.1515 4 24.3606C4 26.5697 5.79086 28.3606 8 28.3606C10.2091 28.3606 12 26.5697 12 24.3606ZM10 24.3606C10 23.256 9.10457 22.3606 8 22.3606C6.89543 22.3606 6 23.256 6 24.3606C6 25.4652 6.89543 26.3606 8 26.3606C9.10457 26.3606 10 25.4652 10 24.3606Z" fill="#FF33FF"/>
</svg>
