<svg width="48" height="49" viewBox="0 0 48 49" fill="none" xmlns="http://www.w3.org/2000/svg">
<path d="M43.1957 7.26634C43.696 6.60601 43.5662 5.66517 42.9059 5.16492C42.2455 4.66467 41.3047 4.79444 40.8044 5.45477L28.7546 21.3606H16.0001C15.4374 21.3606 14.9221 21.6754 14.6653 22.1761L9.69912 31.8602C9.67366 31.9042 9.65042 31.9495 9.62951 31.996L4.66535 41.6761C4.28732 42.4132 4.57845 43.3173 5.3156 43.6953C6.05275 44.0733 6.95677 43.7822 7.3348 43.045L12.3005 33.3618C12.3264 33.3172 12.35 33.2712 12.3712 33.2241L16.9166 24.3606H29.5001C29.9697 24.3606 30.4121 24.1406 30.6957 23.7663L43.1957 7.26634Z" fill="#FF33FF"/>
<path d="M43.1821 20.784C43.6922 20.1312 43.5764 19.1885 42.9236 18.6785C42.2708 18.1685 41.3281 18.2843 40.8181 18.9371L40.8165 18.9391C40.3065 19.5919 40.4223 20.5346 41.0751 21.0446C41.7279 21.5546 42.6706 21.4388 43.1806 20.786L43.1821 20.784Z" fill="#FF33FF"/>
<path d="M40.0587 24.782C40.5687 24.1292 40.453 23.1865 39.8001 22.6765C39.1473 22.1665 38.2047 22.2823 37.6946 22.9351L37.6915 22.9391C37.1815 23.5919 37.2973 24.5346 37.9501 25.0446C38.6029 25.5546 39.5456 25.4388 40.0556 24.786L40.0587 24.782Z" fill="#FF33FF"/>
<path d="M36.9337 28.782C37.4437 28.1292 37.328 27.1865 36.6751 26.6765C36.0223 26.1665 35.0797 26.2823 34.5696 26.9351L34.5665 26.9391C34.0565 27.5919 34.1723 28.5346 34.8251 29.0446C35.4779 29.5546 36.4206 29.4388 36.9306 28.786L36.9337 28.782Z" fill="#FF33FF"/>
<path d="M16.4745 29.9375C16.2038 29.8473 15.9131 29.8361 15.6363 29.9053L15.6338 29.906C14.8301 30.1069 14.3415 30.9213 14.5424 31.725C14.7094 32.393 15.3002 32.8433 15.9564 32.861C16.6017 32.881 17.2107 32.4795 17.4254 31.8356C17.6874 31.0497 17.2626 30.2002 16.4767 29.9383L16.4745 29.9375Z" fill="#FF33FF"/>
<path d="M33.8087 32.782C34.3187 32.1292 34.203 31.1865 33.5501 30.6765C32.8973 30.1665 31.9547 30.2823 31.4446 30.9351L31.4415 30.9391C30.9315 31.5919 31.0473 32.5346 31.7001 33.0446C32.3529 33.5546 33.2956 33.4388 33.8056 32.786L33.8087 32.782Z" fill="#FF33FF"/>
<path d="M20.9722 31.4368C20.1863 31.1748 19.3368 31.5995 19.0748 32.3854C18.8129 33.1714 19.2376 34.0208 20.0235 34.2828L20.028 34.2843C20.8139 34.5463 21.6634 34.1215 21.9254 33.3356C22.1874 32.5497 21.7626 31.7002 20.9767 31.4383L20.9722 31.4368Z" fill="#FF33FF"/>
<path d="M6.36641 35.3151C7.1701 35.1142 7.65874 34.2998 7.45782 33.4961C7.2569 32.6924 6.4425 32.2038 5.6388 32.4047L5.63631 32.4053C4.83261 32.6063 4.34397 33.4207 4.5449 34.2243C4.74582 35.028 5.56022 35.5167 6.36391 35.3158L6.36641 35.3151Z" fill="#FF33FF"/>
<path d="M25.4722 32.9368C24.6863 32.6748 23.8368 33.0995 23.5748 33.8854C23.3129 34.6714 23.7376 35.5208 24.5235 35.7828L24.528 35.7843C25.3139 36.0463 26.1634 35.6215 26.4254 34.8356C26.6874 34.0497 26.2626 33.2002 25.4767 32.9383L25.4722 32.9368Z" fill="#FF33FF"/>
<path d="M30.6837 36.782C31.1937 36.1292 31.078 35.1865 30.4251 34.6765C29.9986 34.3433 29.4484 34.2772 28.976 34.4534C28.565 34.6063 28.2243 34.9371 28.0748 35.3854C27.8129 36.1714 28.2376 37.0208 29.0235 37.2828L29.0258 37.2836C29.628 37.4843 30.2913 37.2842 30.6821 36.784L30.6837 36.782Z" fill="#FF33FF"/>
</svg>
