<svg width="174" height="55" viewBox="0 0 174 55" fill="none" xmlns="http://www.w3.org/2000/svg">
<path d="M24.2924 3.97731C25.3734 3.97731 26.2498 3.10095 26.2498 2.0199C26.2498 0.93886 25.3734 0.0625 24.2924 0.0625C23.2113 0.0625 22.335 0.93886 22.335 2.0199C22.335 3.10095 23.2113 3.97731 24.2924 3.97731Z" fill="white"/>
<path d="M28.8737 3.95843C29.9631 4.00599 30.8841 3.1777 30.9308 2.10839C30.9775 1.03909 30.1322 0.133685 29.0428 0.0861212C27.9534 0.0385578 27.0325 0.866845 26.9858 1.93615C26.9391 3.00546 27.7844 3.91086 28.8737 3.95843Z" fill="white"/>
<path d="M33.6138 3.88778C34.6399 3.88778 35.4718 3.05595 35.4718 2.02983C35.4718 1.00371 34.6399 0.171875 33.6138 0.171875C32.5877 0.171875 31.7559 1.00371 31.7559 2.02983C31.7559 3.05595 32.5877 3.88778 33.6138 3.88778Z" fill="white"/>
<path d="M19.6447 3.79329C20.6199 3.79329 21.4105 3.00272 21.4105 2.0275C21.4105 1.05229 20.6199 0.261719 19.6447 0.261719C18.6695 0.261719 17.8789 1.05229 17.8789 2.0275C17.8789 3.00272 18.6695 3.79329 19.6447 3.79329Z" fill="white"/>
<path d="M38.2236 3.61812C39.1318 3.61812 39.8681 2.88185 39.8681 1.97361C39.8681 1.06537 39.1318 0.329102 38.2236 0.329102C37.3154 0.329102 36.5791 1.06537 36.5791 1.97361C36.5791 2.88185 37.3154 3.61812 38.2236 3.61812Z" fill="white"/>
<path d="M14.9755 3.58877C15.8449 3.58877 16.5497 2.88398 16.5497 2.0146C16.5497 1.14521 15.8449 0.44043 14.9755 0.44043C14.1061 0.44043 13.4014 1.14521 13.4014 2.0146C13.4014 2.88398 14.1061 3.58877 14.9755 3.58877Z" fill="white"/>
<path d="M42.8397 3.35916C43.6314 3.35916 44.2732 2.71737 44.2732 1.92568C44.2732 1.13398 43.6314 0.492188 42.8397 0.492188C42.048 0.492188 41.4062 1.13398 41.4062 1.92568C41.4062 2.71737 42.048 3.35916 42.8397 3.35916Z" fill="white"/>
<path d="M10.3084 3.40726C11.0692 3.40726 11.6861 2.79044 11.6861 2.02956C11.6861 1.26868 11.0692 0.651855 10.3084 0.651855C9.54748 0.651855 8.93066 1.26868 8.93066 2.02956C8.93066 2.79044 9.54748 3.40726 10.3084 3.40726Z" fill="white"/>
<path d="M47.4502 3.06505C48.128 3.0686 48.6803 2.53937 48.6837 1.88299C48.6872 1.2266 48.1405 0.691616 47.4627 0.688067C46.7848 0.684518 46.2326 1.21375 46.2291 1.87013C46.2257 2.52652 46.7724 3.0615 47.4502 3.06505Z" fill="white"/>
<path d="M5.64995 3.20371C6.30501 3.20371 6.83603 2.67268 6.83603 2.01762C6.83603 1.36257 6.30501 0.831543 5.64995 0.831543C4.99489 0.831543 4.46387 1.36257 4.46387 2.01762C4.46387 2.67268 4.99489 3.20371 5.64995 3.20371Z" fill="white"/>
<path d="M52.0736 2.82047C52.6228 2.82047 53.068 2.37523 53.068 1.826C53.068 1.27677 52.6228 0.831543 52.0736 0.831543C51.5243 0.831543 51.0791 1.27677 51.0791 1.826C51.0791 2.37523 51.5243 2.82047 52.0736 2.82047Z" fill="white"/>
<path d="M0.996927 3.01436C1.54482 3.01436 1.98897 2.57021 1.98897 2.02232C1.98897 1.47443 1.54482 1.03027 0.996927 1.03027C0.449037 1.03027 0.00488281 1.47443 0.00488281 2.02232C0.00488281 2.57021 0.449037 3.01436 0.996927 3.01436Z" fill="white"/>
<path d="M24.2948 8.59788C25.3772 8.59788 26.2546 7.72044 26.2546 6.63805C26.2546 5.55567 25.3772 4.67822 24.2948 4.67822C23.2124 4.67822 22.335 5.55567 22.335 6.63805C22.335 7.72044 23.2124 8.59788 24.2948 8.59788Z" fill="white"/>
<path d="M28.9603 8.60273C30.044 8.60273 30.9225 7.7242 30.9225 6.64047C30.9225 5.55675 30.044 4.67822 28.9603 4.67822C27.8766 4.67822 26.998 5.55675 26.998 6.64047C26.998 7.7242 27.8766 8.60273 28.9603 8.60273Z" fill="white"/>
<path d="M33.6138 8.50595C34.6399 8.50595 35.4718 7.67411 35.4718 6.64799C35.4718 5.62187 34.6399 4.79004 33.6138 4.79004C32.5877 4.79004 31.7559 5.62187 31.7559 6.64799C31.7559 7.67411 32.5877 8.50595 33.6138 8.50595Z" fill="white"/>
<path d="M19.6393 8.42069C20.6159 8.42069 21.4075 7.62904 21.4075 6.65249C21.4075 5.67593 20.6159 4.88428 19.6393 4.88428C18.6628 4.88428 17.8711 5.67593 17.8711 6.65249C17.8711 7.62904 18.6628 8.42069 19.6393 8.42069Z" fill="white"/>
<path d="M38.2236 8.24116C39.1318 8.24116 39.8681 7.50489 39.8681 6.59666C39.8681 5.68842 39.1318 4.95215 38.2236 4.95215C37.3154 4.95215 36.5791 5.68842 36.5791 6.59666C36.5791 7.50489 37.3154 8.24116 38.2236 8.24116Z" fill="white"/>
<path d="M14.975 8.21715C15.8458 8.21715 16.5516 7.51129 16.5516 6.64056C16.5516 5.76983 15.8458 5.06396 14.975 5.06396C14.1043 5.06396 13.3984 5.76983 13.3984 6.64056C13.3984 7.51129 14.1043 8.21715 14.975 8.21715Z" fill="white"/>
<path d="M42.8402 7.98413C43.6332 7.98413 44.2761 7.34125 44.2761 6.54821C44.2761 5.75518 43.6332 5.1123 42.8402 5.1123C42.0472 5.1123 41.4043 5.75518 41.4043 6.54821C41.4043 7.34125 42.0472 7.98413 42.8402 7.98413Z" fill="white"/>
<path d="M10.3088 8.03564C11.0711 8.03564 11.689 7.41774 11.689 6.65552C11.689 5.89329 11.0711 5.27539 10.3088 5.27539C9.54661 5.27539 8.92871 5.89329 8.92871 6.65552C8.92871 7.41774 9.54661 8.03564 10.3088 8.03564Z" fill="white"/>
<path d="M47.4555 7.71951C48.1239 7.71951 48.6658 7.17762 48.6658 6.50917C48.6658 5.84072 48.1239 5.29883 47.4555 5.29883C46.787 5.29883 46.2451 5.84072 46.2451 6.50917C46.2451 7.17762 46.787 7.71951 47.4555 7.71951Z" fill="white"/>
<path d="M5.65194 7.82634C6.30431 7.82634 6.83317 7.29748 6.83317 6.64511C6.83317 5.99273 6.30431 5.46387 5.65194 5.46387C4.99956 5.46387 4.4707 5.99273 4.4707 6.64511C4.4707 7.29748 4.99956 7.82634 5.65194 7.82634Z" fill="white"/>
<path d="M52.0707 7.4387C52.6172 7.4387 53.0603 6.99564 53.0603 6.44909C53.0603 5.90254 52.6172 5.45947 52.0707 5.45947C51.5241 5.45947 51.0811 5.90254 51.0811 6.44909C51.0811 6.99564 51.5241 7.4387 52.0707 7.4387Z" fill="white"/>
<path d="M0.996892 7.64222C1.54746 7.64222 1.99378 7.1959 1.99378 6.64533C1.99378 6.09477 1.54746 5.64844 0.996892 5.64844C0.446324 5.64844 0 6.09477 0 6.64533C0 7.1959 0.446324 7.64222 0.996892 7.64222Z" fill="white"/>
<path d="M24.2919 13.2351C25.3742 13.2351 26.2517 12.3576 26.2517 11.2753C26.2517 10.1929 25.3742 9.31543 24.2919 9.31543C23.2095 9.31543 22.332 10.1929 22.332 11.2753C22.332 12.3576 23.2095 13.2351 24.2919 13.2351Z" fill="white"/>
<path d="M28.9579 13.2331C30.0403 13.2331 30.9177 12.3557 30.9177 11.2733C30.9177 10.1909 30.0403 9.31348 28.9579 9.31348C27.8755 9.31348 26.998 10.1909 26.998 11.2733C26.998 12.3557 27.8755 13.2331 28.9579 13.2331Z" fill="white"/>
<path d="M33.6138 13.1309C34.6426 13.1309 35.4766 12.2969 35.4766 11.2681C35.4766 10.2393 34.6426 9.40527 33.6138 9.40527C32.585 9.40527 31.751 10.2393 31.751 11.2681C31.751 12.2969 32.585 13.1309 33.6138 13.1309Z" fill="white"/>
<path d="M19.6413 13.0389C20.6178 13.0389 21.4095 12.2472 21.4095 11.2706C21.4095 10.2941 20.6178 9.50244 19.6413 9.50244C18.6647 9.50244 17.873 10.2941 17.873 11.2706C17.873 12.2472 18.6647 13.0389 19.6413 13.0389Z" fill="white"/>
<path d="M38.2212 12.8691C39.1281 12.8691 39.8633 12.1339 39.8633 11.227C39.8633 10.3201 39.1281 9.58496 38.2212 9.58496C37.3143 9.58496 36.5791 10.3201 36.5791 11.227C36.5791 12.1339 37.3143 12.8691 38.2212 12.8691Z" fill="white"/>
<path d="M14.9755 12.8451C15.8449 12.8451 16.5497 12.1403 16.5497 11.2709C16.5497 10.4016 15.8449 9.69678 14.9755 9.69678C14.1061 9.69678 13.4014 10.4016 13.4014 11.2709C13.4014 12.1403 14.1061 12.8451 14.9755 12.8451Z" fill="white"/>
<path d="M42.8402 12.6024C43.6306 12.6024 44.2713 11.9616 44.2713 11.1713C44.2713 10.3809 43.6306 9.74023 42.8402 9.74023C42.0499 9.74023 41.4092 10.3809 41.4092 11.1713C41.4092 11.9616 42.0499 12.6024 42.8402 12.6024Z" fill="white"/>
<path d="M10.3083 12.6587C11.0719 12.6587 11.6909 12.0397 11.6909 11.2761C11.6909 10.5125 11.0719 9.89355 10.3083 9.89355C9.54477 9.89355 8.92578 10.5125 8.92578 11.2761C8.92578 12.0397 9.54477 12.6587 10.3083 12.6587Z" fill="white"/>
<path d="M47.4559 12.3406C48.1257 12.3406 48.6687 11.7976 48.6687 11.1278C48.6687 10.458 48.1257 9.91504 47.4559 9.91504C46.7861 9.91504 46.2432 10.458 46.2432 11.1278C46.2432 11.7976 46.7861 12.3406 47.4559 12.3406Z" fill="white"/>
<path d="M5.65146 12.447C6.3025 12.447 6.83027 11.9192 6.83027 11.2682C6.83027 10.6171 6.3025 10.0894 5.65146 10.0894C5.00043 10.0894 4.47266 10.6171 4.47266 11.2682C4.47266 11.9192 5.00043 12.447 5.65146 12.447Z" fill="white"/>
<path d="M52.0711 12.0686C52.619 12.0686 53.0632 11.6244 53.0632 11.0765C53.0632 10.5286 52.619 10.0845 52.0711 10.0845C51.5233 10.0845 51.0791 10.5286 51.0791 11.0765C51.0791 11.6244 51.5233 12.0686 52.0711 12.0686Z" fill="white"/>
<path d="M0.996892 12.2682C1.54746 12.2682 1.99378 11.8219 1.99378 11.2713C1.99378 10.7207 1.54746 10.2744 0.996892 10.2744C0.446324 10.2744 0 10.7207 0 11.2713C0 11.8219 0.446324 12.2682 0.996892 12.2682Z" fill="white"/>
<path d="M24.2914 17.8586C25.3751 17.8586 26.2536 16.9801 26.2536 15.8963C26.2536 14.8126 25.3751 13.9341 24.2914 13.9341C23.2076 13.9341 22.3291 14.8126 22.3291 15.8963C22.3291 16.9801 23.2076 17.8586 24.2914 17.8586Z" fill="white"/>
<path d="M28.9579 17.8557C30.0403 17.8557 30.9177 16.9782 30.9177 15.8959C30.9177 14.8135 30.0403 13.936 28.9579 13.936C27.8755 13.936 26.998 14.8135 26.998 15.8959C26.998 16.9782 27.8755 17.8557 28.9579 17.8557Z" fill="white"/>
<path d="M139.026 14.4626C141.594 15.3504 143.278 17.4945 144.01 20.216C144.057 20.3874 144.085 20.5669 144.095 20.7544C144.101 20.8951 144.037 20.9833 143.901 21.0188L140.263 21.9721C140.169 21.9963 140.107 21.9632 140.076 21.8726C139.547 20.3106 138.87 18.8164 137.219 18.2367C135.86 17.7589 134.075 17.9311 133.144 19.0881C132.222 20.233 132.198 21.9114 133.321 22.9277C133.867 23.4241 134.538 23.8308 135.332 24.1478C136.742 24.7137 138.139 25.2813 139.523 25.8505C142.567 27.1045 144.767 29.3772 144.837 32.8166C144.934 37.476 141.495 40.7432 136.961 41.0222C135.613 41.1062 134.414 41.0327 133.364 40.8014C129.726 40.0059 127.378 37.1001 126.779 33.4836C126.766 33.4028 126.799 33.3534 126.879 33.3357C128.041 33.0672 129.319 32.7325 130.711 32.3315C130.78 32.3121 130.846 32.3202 130.907 32.3557C130.983 32.3978 131.013 32.4641 130.997 32.5546C130.984 32.6161 130.989 32.6759 131.012 32.7341C131.235 33.3332 131.363 33.959 131.671 34.5217C132.779 36.5349 134.587 37.3523 137.095 36.9739C138.258 36.7977 139.093 36.1978 139.603 35.1742C140.981 32.3994 138.625 30.7476 136.382 29.9326C135.119 29.4734 133.966 29.0223 132.923 28.5792C129.976 27.3276 127.885 25.0695 127.798 21.7198C127.684 17.366 130.847 14.2177 135.174 14.0188C136.552 13.9557 137.767 14.0285 139.026 14.4626Z" fill="white"/>
<path d="M168.626 33.7656C168.706 32.0507 167.45 30.918 165.989 30.3286C164.615 29.774 163.191 29.2072 161.718 28.6283C159.176 27.629 157.187 25.7322 156.615 23.0569C156.267 21.4285 156.43 19.8722 157.102 18.3877C158.148 16.077 160.01 14.6678 162.688 14.16C164.199 13.8738 166.21 13.9248 167.673 14.4608C170.54 15.5135 172.204 17.8177 172.795 20.7138C172.828 20.8691 172.767 20.9669 172.613 21.0073L168.907 21.9848C168.818 22.0091 168.761 21.9775 168.735 21.8902C168.112 19.8042 167.122 18.2058 164.757 17.9972C162.577 17.8056 160.724 19.4162 161.243 21.6986C161.512 22.8847 162.846 23.673 163.925 24.1096C165.387 24.7014 166.834 25.2876 168.267 25.8681C169.268 26.2739 170.245 26.8852 171.197 27.7018C174.207 30.285 174.156 34.9832 171.859 37.9326C170.399 39.8124 168.121 40.8578 165.759 41.0082C164.047 41.1174 162.298 41.0519 160.714 40.4043C157.912 39.2643 156.164 37.0126 155.472 33.6492C155.437 33.4794 155.502 33.3727 155.669 33.329L159.448 32.3297C159.479 32.3209 159.513 32.3243 159.542 32.3391C159.571 32.3539 159.594 32.3791 159.605 32.4097C159.889 33.1398 159.991 33.8602 160.372 34.566C161.329 36.3302 162.898 37.1621 165.077 37.0619C167.047 36.9721 168.529 35.8079 168.626 33.7656Z" fill="white"/>
<path d="M33.6138 17.7588C34.6426 17.7588 35.4766 16.9248 35.4766 15.896C35.4766 14.8672 34.6426 14.0332 33.6138 14.0332C32.585 14.0332 31.751 14.8672 31.751 15.896C31.751 16.9248 32.585 17.7588 33.6138 17.7588Z" fill="white"/>
<path d="M19.6427 17.6546C20.618 17.6546 21.4085 16.864 21.4085 15.8888C21.4085 14.9136 20.618 14.123 19.6427 14.123C18.6675 14.123 17.877 14.9136 17.877 15.8888C17.877 16.864 18.6675 17.6546 19.6427 17.6546Z" fill="white"/>
<path d="M38.2217 17.4921C39.1299 17.4921 39.8662 16.7559 39.8662 15.8476C39.8662 14.9394 39.1299 14.2031 38.2217 14.2031C37.3134 14.2031 36.5771 14.9394 36.5771 15.8476C36.5771 16.7559 37.3134 17.4921 38.2217 17.4921Z" fill="white"/>
<path d="M14.9775 17.4755C15.8469 17.4755 16.5517 16.7707 16.5517 15.9013C16.5517 15.0319 15.8469 14.3271 14.9775 14.3271C14.1081 14.3271 13.4033 15.0319 13.4033 15.9013C13.4033 16.7707 14.1081 17.4755 14.9775 17.4755Z" fill="white"/>
<path d="M42.8397 17.2158C43.6367 17.2158 44.2829 16.5816 44.2829 15.7993C44.2829 15.017 43.6367 14.3828 42.8397 14.3828C42.0426 14.3828 41.3965 15.017 41.3965 15.7993C41.3965 16.5816 42.0426 17.2158 42.8397 17.2158Z" fill="white"/>
<path d="M10.3064 17.2739C11.0699 17.2739 11.6889 16.6549 11.6889 15.8913C11.6889 15.1278 11.0699 14.5088 10.3064 14.5088C9.54282 14.5088 8.92383 15.1278 8.92383 15.8913C8.92383 16.6549 9.54282 17.2739 10.3064 17.2739Z" fill="white"/>
<path d="M47.4554 16.966C48.1266 16.966 48.6706 16.422 48.6706 15.7508C48.6706 15.0797 48.1266 14.5356 47.4554 14.5356C46.7843 14.5356 46.2402 15.0797 46.2402 15.7508C46.2402 16.422 46.7843 16.966 47.4554 16.966Z" fill="white"/>
<path d="M75.8799 19.1563C75.8562 19.1144 75.8218 19.0795 75.78 19.0552C75.7382 19.0309 75.6907 19.0181 75.6422 19.018L69.5347 19.0108C69.4393 19.0108 69.3916 18.9631 69.3916 18.8677V14.6618C69.3916 14.5793 69.432 14.5381 69.5129 14.5381H92.2522C92.3331 14.5381 92.3735 14.5793 92.3735 14.6618L92.3759 25.2808C92.3759 25.3132 92.3823 25.3454 92.3947 25.3754C92.4072 25.4054 92.4254 25.4327 92.4484 25.4557C92.4713 25.4787 92.4986 25.4969 92.5286 25.5093C92.5586 25.5218 92.5908 25.5282 92.6233 25.5282L100.198 25.5306C100.284 25.5306 100.366 25.4968 100.426 25.4368C100.487 25.3768 100.521 25.2953 100.521 25.2104V14.6181C100.521 14.5969 100.529 14.5765 100.544 14.5615C100.559 14.5465 100.58 14.5381 100.601 14.5381H105.183C105.273 14.5381 105.319 14.5842 105.319 14.6763L105.321 40.5907C105.321 40.6018 105.319 40.6129 105.314 40.6232C105.31 40.6335 105.304 40.6428 105.296 40.6507C105.288 40.6586 105.279 40.6649 105.269 40.6691C105.258 40.6734 105.247 40.6756 105.236 40.6756H100.608C100.585 40.6756 100.563 40.6664 100.546 40.65C100.53 40.6336 100.521 40.6114 100.521 40.5883V30.0348C100.521 29.9886 100.512 29.9429 100.494 29.9002C100.476 29.8575 100.45 29.8188 100.417 29.7861C100.384 29.7534 100.345 29.7275 100.302 29.7099C100.259 29.6922 100.213 29.6831 100.167 29.6831H92.6233C92.5571 29.6831 92.4935 29.7097 92.4467 29.757C92.3998 29.8043 92.3735 29.8684 92.3735 29.9353V40.5543C92.3735 40.6352 92.3331 40.6756 92.2522 40.6756H87.7019C87.6211 40.6756 87.5806 40.6343 87.5806 40.5519V19.3819C87.5806 19.2834 87.5415 19.189 87.4719 19.1195C87.4023 19.0499 87.308 19.0108 87.2095 19.0108L81.0511 19.0156C80.9724 19.0163 80.8972 19.048 80.8417 19.1038C80.7863 19.1597 80.7552 19.2352 80.7552 19.314V40.5955C80.7552 40.6168 80.7468 40.6371 80.7318 40.6521C80.7167 40.6671 80.6964 40.6756 80.6752 40.6756L76.0133 40.6732C75.9777 40.6732 75.9599 40.6554 75.9599 40.6198C75.9551 33.5453 75.9535 26.4862 75.9551 19.4425C75.9551 19.3406 75.93 19.2452 75.8799 19.1563Z" fill="white"/>
<path d="M113.829 29.7534C113.794 29.7725 113.765 29.8006 113.744 29.8348C113.724 29.8689 113.713 29.9078 113.713 29.9475V36.1301C113.713 36.1958 113.739 36.2587 113.786 36.3051C113.833 36.3515 113.897 36.3775 113.963 36.3775L124.8 36.38C124.907 36.38 124.96 36.4325 124.96 36.5376L124.963 40.5106C124.963 40.6206 124.908 40.6756 124.798 40.6756H108.998C108.969 40.6756 108.941 40.6638 108.921 40.6429C108.9 40.622 108.889 40.5936 108.889 40.564V14.6788C108.889 14.585 108.936 14.5381 109.032 14.5381H124.754C124.837 14.5381 124.878 14.5793 124.878 14.6618V18.5839C124.878 18.6518 124.843 18.6857 124.773 18.6857L114.036 18.6906C113.95 18.6906 113.868 18.7246 113.808 18.7851C113.747 18.8456 113.713 18.9276 113.713 19.0132V25.2177C113.713 25.3007 113.746 25.3803 113.805 25.4389C113.863 25.4976 113.943 25.5306 114.026 25.5306H122.542C122.567 25.5306 122.591 25.5405 122.609 25.5583C122.627 25.576 122.637 25.6001 122.637 25.6252V29.5254C122.637 29.6289 122.585 29.6807 122.481 29.6807C119.734 29.6807 116.941 29.6815 114.101 29.6831C114.006 29.6831 113.915 29.7065 113.829 29.7534Z" fill="white"/>
<path d="M152.617 14.5381H147.95C147.906 14.5381 147.87 14.5739 147.87 14.6181V40.5955C147.87 40.6397 147.906 40.6756 147.95 40.6756H152.617C152.661 40.6756 152.697 40.6397 152.697 40.5955V14.6181C152.697 14.5739 152.661 14.5381 152.617 14.5381Z" fill="white"/>
<path d="M5.65194 17.0778C6.30431 17.0778 6.83317 16.5489 6.83317 15.8966C6.83317 15.2442 6.30431 14.7153 5.65194 14.7153C4.99956 14.7153 4.4707 15.2442 4.4707 15.8966C4.4707 16.5489 4.99956 17.0778 5.65194 17.0778Z" fill="white"/>
<path d="M52.0731 16.6994C52.621 16.6994 53.0651 16.2553 53.0651 15.7074C53.0651 15.1595 52.621 14.7153 52.0731 14.7153C51.5252 14.7153 51.0811 15.1595 51.0811 15.7074C51.0811 16.2553 51.5252 16.6994 52.0731 16.6994Z" fill="white"/>
<path d="M0.996892 16.8883C1.54746 16.8883 1.99378 16.442 1.99378 15.8914C1.99378 15.3409 1.54746 14.8945 0.996892 14.8945C0.446324 14.8945 0 15.3409 0 15.8914C0 16.442 0.446324 16.8883 0.996892 16.8883Z" fill="white"/>
<path d="M28.9583 22.486C30.0421 22.486 30.9206 21.6075 30.9206 20.5238C30.9206 19.4401 30.0421 18.5615 28.9583 18.5615C27.8746 18.5615 26.9961 19.4401 26.9961 20.5238C26.9961 21.6075 27.8746 22.486 28.9583 22.486Z" fill="white"/>
<path d="M24.2992 22.486C25.3829 22.486 26.2614 21.6075 26.2614 20.5238C26.2614 19.4401 25.3829 18.5615 24.2992 18.5615C23.2154 18.5615 22.3369 19.4401 22.3369 20.5238C22.3369 21.6075 23.2154 22.486 24.2992 22.486Z" fill="white"/>
<path d="M19.6391 22.2319C20.5876 22.2319 21.3564 21.4631 21.3564 20.5146C21.3564 19.5662 20.5876 18.7974 19.6391 18.7974C18.6907 18.7974 17.9219 19.5662 17.9219 20.5146C17.9219 21.4631 18.6907 22.2319 19.6391 22.2319Z" fill="white"/>
<path d="M33.6152 22.2338C34.565 22.2338 35.3349 21.4639 35.3349 20.5141C35.3349 19.5644 34.565 18.7944 33.6152 18.7944C32.6654 18.7944 31.8955 19.5644 31.8955 20.5141C31.8955 21.4639 32.6654 22.2338 33.6152 22.2338Z" fill="white"/>
<path d="M14.9728 21.9022C15.7404 21.9022 16.3627 21.28 16.3627 20.5124C16.3627 19.7448 15.7404 19.1226 14.9728 19.1226C14.2053 19.1226 13.583 19.7448 13.583 20.5124C13.583 21.28 14.2053 21.9022 14.9728 21.9022Z" fill="white"/>
<path d="M38.2853 21.9022C39.0529 21.9022 39.6752 21.28 39.6752 20.5124C39.6752 19.7448 39.0529 19.1226 38.2853 19.1226C37.5178 19.1226 36.8955 19.7448 36.8955 20.5124C36.8955 21.28 37.5178 21.9022 38.2853 21.9022Z" fill="white"/>
<path d="M10.3216 21.5934C10.9124 21.5934 11.3913 21.1145 11.3913 20.5238C11.3913 19.933 10.9124 19.4541 10.3216 19.4541C9.73086 19.4541 9.25195 19.933 9.25195 20.5238C9.25195 21.1145 9.73086 21.5934 10.3216 21.5934Z" fill="white"/>
<path d="M42.9373 21.5939C43.5268 21.5939 44.0046 21.1161 44.0046 20.5267C44.0046 19.9373 43.5268 19.4595 42.9373 19.4595C42.3479 19.4595 41.8701 19.9373 41.8701 20.5267C41.8701 21.1161 42.3479 21.5939 42.9373 21.5939Z" fill="white"/>
<path d="M5.6524 21.2662C6.05963 21.2662 6.38976 20.9361 6.38976 20.5289C6.38976 20.1216 6.05963 19.7915 5.6524 19.7915C5.24517 19.7915 4.91504 20.1216 4.91504 20.5289C4.91504 20.9361 5.24517 21.2662 5.6524 21.2662Z" fill="white"/>
<path d="M47.5992 21.2663C48.0051 21.2663 48.3341 20.9372 48.3341 20.5313C48.3341 20.1254 48.0051 19.7964 47.5992 19.7964C47.1933 19.7964 46.8643 20.1254 46.8643 20.5313C46.8643 20.9372 47.1933 21.2663 47.5992 21.2663Z" fill="white"/>
<path d="M0.991471 20.92C1.21652 20.92 1.39896 20.7375 1.39896 20.5125C1.39896 20.2874 1.21652 20.105 0.991471 20.105C0.766421 20.105 0.583984 20.2874 0.583984 20.5125C0.583984 20.7375 0.766421 20.92 0.991471 20.92Z" fill="white"/>
<path d="M52.2537 20.9219C52.4801 20.9219 52.6636 20.7384 52.6636 20.512C52.6636 20.2856 52.4801 20.1021 52.2537 20.1021C52.0273 20.1021 51.8438 20.2856 51.8438 20.512C51.8438 20.7384 52.0273 20.9219 52.2537 20.9219Z" fill="white"/>
<path d="M24.3002 27.1043C25.3812 27.1043 26.2576 26.2279 26.2576 25.1469C26.2576 24.0658 25.3812 23.1895 24.3002 23.1895C23.2191 23.1895 22.3428 24.0658 22.3428 25.1469C22.3428 26.2279 23.2191 27.1043 24.3002 27.1043Z" fill="white"/>
<path d="M28.9593 27.1072C30.0404 27.1072 30.9168 26.2308 30.9168 25.1498C30.9168 24.0687 30.0404 23.1924 28.9593 23.1924C27.8783 23.1924 27.002 24.0687 27.002 25.1498C27.002 26.2308 27.8783 27.1072 28.9593 27.1072Z" fill="white"/>
<path d="M19.6416 26.8647C20.5913 26.8647 21.3613 26.0948 21.3613 25.145C21.3613 24.1952 20.5913 23.4253 19.6416 23.4253C18.6918 23.4253 17.9219 24.1952 17.9219 25.145C17.9219 26.0948 18.6918 26.8647 19.6416 26.8647Z" fill="white"/>
<path d="M33.6157 26.8652C34.5668 26.8652 35.3378 26.0941 35.3378 25.143C35.3378 24.1919 34.5668 23.4209 33.6157 23.4209C32.6646 23.4209 31.8936 24.1919 31.8936 25.143C31.8936 26.0941 32.6646 26.8652 33.6157 26.8652Z" fill="white"/>
<path d="M38.2849 26.5297C39.0511 26.5297 39.6723 25.9085 39.6723 25.1423C39.6723 24.376 39.0511 23.7549 38.2849 23.7549C37.5186 23.7549 36.8975 24.376 36.8975 25.1423C36.8975 25.9085 37.5186 26.5297 38.2849 26.5297Z" fill="white"/>
<path d="M14.9738 26.5248C15.7387 26.5248 16.3588 25.9048 16.3588 25.1399C16.3588 24.375 15.7387 23.7549 14.9738 23.7549C14.2089 23.7549 13.5889 24.375 13.5889 25.1399C13.5889 25.9048 14.2089 26.5248 14.9738 26.5248Z" fill="white"/>
<path d="M10.3207 26.2097C10.9087 26.2097 11.3855 25.733 11.3855 25.1449C11.3855 24.5568 10.9087 24.0801 10.3207 24.0801C9.73259 24.0801 9.25586 24.5568 9.25586 25.1449C9.25586 25.733 9.73259 26.2097 10.3207 26.2097Z" fill="white"/>
<path d="M42.9349 26.2097C43.523 26.2097 43.9997 25.733 43.9997 25.1449C43.9997 24.5568 43.523 24.0801 42.9349 24.0801C42.3469 24.0801 41.8701 24.5568 41.8701 25.1449C41.8701 25.733 42.3469 26.2097 42.9349 26.2097Z" fill="white"/>
<path d="M5.65435 25.8873C6.06159 25.8873 6.39171 25.5572 6.39171 25.15C6.39171 24.7427 6.06159 24.4126 5.65435 24.4126C5.24712 24.4126 4.91699 24.7427 4.91699 25.15C4.91699 25.5572 5.24712 25.8873 5.65435 25.8873Z" fill="white"/>
<path d="M47.5982 25.8819C48.0068 25.8819 48.338 25.5507 48.338 25.1421C48.338 24.7336 48.0068 24.4023 47.5982 24.4023C47.1896 24.4023 46.8584 24.7336 46.8584 25.1421C46.8584 25.5507 47.1896 25.8819 47.5982 25.8819Z" fill="white"/>
<path d="M0.997334 25.5523C1.22238 25.5523 1.40482 25.3698 1.40482 25.1448C1.40482 24.9197 1.22238 24.7373 0.997334 24.7373C0.772285 24.7373 0.589844 24.9197 0.589844 25.1448C0.589844 25.3698 0.772285 25.5523 0.997334 25.5523Z" fill="white"/>
<path d="M52.2517 25.5401C52.4754 25.5401 52.6568 25.3587 52.6568 25.135C52.6568 24.9113 52.4754 24.73 52.2517 24.73C52.028 24.73 51.8467 24.9113 51.8467 25.135C51.8467 25.3587 52.028 25.5401 52.2517 25.5401Z" fill="white"/>
<path d="M24.3002 31.7229C25.3812 31.7229 26.2576 30.8465 26.2576 29.7655C26.2576 28.6845 25.3812 27.8081 24.3002 27.8081C23.2191 27.8081 22.3428 28.6845 22.3428 29.7655C22.3428 30.8465 23.2191 31.7229 24.3002 31.7229Z" fill="white"/>
<path d="M28.9593 31.7229C30.0404 31.7229 30.9168 30.8465 30.9168 29.7655C30.9168 28.6845 30.0404 27.8081 28.9593 27.8081C27.8783 27.8081 27.002 28.6845 27.002 29.7655C27.002 30.8465 27.8783 31.7229 28.9593 31.7229Z" fill="white"/>
<path d="M19.6401 31.4902C20.5912 31.4902 21.3622 30.7191 21.3622 29.768C21.3622 28.8169 20.5912 28.0459 19.6401 28.0459C18.689 28.0459 17.918 28.8169 17.918 29.768C17.918 30.7191 18.689 31.4902 19.6401 31.4902Z" fill="white"/>
<path d="M33.6157 31.4902C34.5668 31.4902 35.3378 30.7191 35.3378 29.768C35.3378 28.8169 34.5668 28.0459 33.6157 28.0459C32.6646 28.0459 31.8936 28.8169 31.8936 29.768C31.8936 30.7191 32.6646 31.4902 33.6157 31.4902Z" fill="white"/>
<path d="M14.9738 31.1552C15.7387 31.1552 16.3588 30.5351 16.3588 29.7702C16.3588 29.0053 15.7387 28.3853 14.9738 28.3853C14.2089 28.3853 13.5889 29.0053 13.5889 29.7702C13.5889 30.5351 14.2089 31.1552 14.9738 31.1552Z" fill="white"/>
<path d="M38.2829 31.1601C39.0492 31.1601 39.6703 30.5389 39.6703 29.7727C39.6703 29.0064 39.0492 28.3853 38.2829 28.3853C37.5167 28.3853 36.8955 29.0064 36.8955 29.7727C36.8955 30.5389 37.5167 31.1601 38.2829 31.1601Z" fill="white"/>
<path d="M10.3187 30.8327C10.9068 30.8327 11.3835 30.356 11.3835 29.7679C11.3835 29.1799 10.9068 28.7031 10.3187 28.7031C9.73064 28.7031 9.25391 29.1799 9.25391 29.7679C9.25391 30.356 9.73064 30.8327 10.3187 30.8327Z" fill="white"/>
<path d="M42.9349 30.8352C43.523 30.8352 43.9997 30.3585 43.9997 29.7704C43.9997 29.1823 43.523 28.7056 42.9349 28.7056C42.3469 28.7056 41.8701 29.1823 41.8701 29.7704C41.8701 30.3585 42.3469 30.8352 42.9349 30.8352Z" fill="white"/>
<path d="M5.6524 30.5006C6.05963 30.5006 6.38976 30.1705 6.38976 29.7632C6.38976 29.356 6.05963 29.0259 5.6524 29.0259C5.24517 29.0259 4.91504 29.356 4.91504 29.7632C4.91504 30.1705 5.24517 30.5006 5.6524 30.5006Z" fill="white"/>
<path d="M47.5982 30.5074C48.0068 30.5074 48.338 30.1762 48.338 29.7676C48.338 29.359 48.0068 29.0278 47.5982 29.0278C47.1896 29.0278 46.8584 29.359 46.8584 29.7676C46.8584 30.1762 47.1896 30.5074 47.5982 30.5074Z" fill="white"/>
<path d="M0.999318 30.1803C1.22169 30.1803 1.40196 30 1.40196 29.7776C1.40196 29.5553 1.22169 29.375 0.999318 29.375C0.776948 29.375 0.59668 29.5553 0.59668 29.7776C0.59668 30 0.776948 30.1803 0.999318 30.1803Z" fill="white"/>
<path d="M52.2417 30.1484C52.4506 30.1484 52.62 29.979 52.62 29.77C52.62 29.561 52.4506 29.3916 52.2417 29.3916C52.0327 29.3916 51.8633 29.561 51.8633 29.77C51.8633 29.979 52.0327 30.1484 52.2417 30.1484Z" fill="white"/>
<path d="M24.2967 36.3508C25.3791 36.3508 26.2566 35.4734 26.2566 34.391C26.2566 33.3086 25.3791 32.4312 24.2967 32.4312C23.2144 32.4312 22.3369 33.3086 22.3369 34.391C22.3369 35.4734 23.2144 36.3508 24.2967 36.3508Z" fill="white"/>
<path d="M28.9603 36.3508C30.044 36.3508 30.9225 35.4722 30.9225 34.3885C30.9225 33.3048 30.044 32.4263 28.9603 32.4263C27.8766 32.4263 26.998 33.3048 26.998 34.3885C26.998 35.4722 27.8766 36.3508 28.9603 36.3508Z" fill="white"/>
<path d="M19.6396 36.1181C20.5894 36.1181 21.3593 35.3482 21.3593 34.3984C21.3593 33.4486 20.5894 32.6787 19.6396 32.6787C18.6899 32.6787 17.9199 33.4486 17.9199 34.3984C17.9199 35.3482 18.6899 36.1181 19.6396 36.1181Z" fill="white"/>
<path d="M33.6152 36.1181C34.565 36.1181 35.3349 35.3482 35.3349 34.3984C35.3349 33.4486 34.565 32.6787 33.6152 32.6787C32.6654 32.6787 31.8955 33.4486 31.8955 34.3984C31.8955 35.3482 32.6654 36.1181 33.6152 36.1181Z" fill="white"/>
<path d="M14.9724 35.7855C15.7386 35.7855 16.3598 35.1644 16.3598 34.3981C16.3598 33.6319 15.7386 33.0107 14.9724 33.0107C14.2061 33.0107 13.585 33.6319 13.585 34.3981C13.585 35.1644 14.2061 35.7855 14.9724 35.7855Z" fill="white"/>
<path d="M38.2849 35.788C39.0511 35.788 39.6723 35.1668 39.6723 34.4006C39.6723 33.6343 39.0511 33.0132 38.2849 33.0132C37.5186 33.0132 36.8975 33.6343 36.8975 34.4006C36.8975 35.1668 37.5186 35.788 38.2849 35.788Z" fill="white"/>
<path d="M10.3236 35.4557C10.9143 35.4557 11.3932 34.9768 11.3932 34.3861C11.3932 33.7953 10.9143 33.3164 10.3236 33.3164C9.73281 33.3164 9.25391 33.7953 9.25391 34.3861C9.25391 34.9768 9.73281 35.4557 10.3236 35.4557Z" fill="white"/>
<path d="M42.9344 35.4558C43.5238 35.4558 44.0017 34.9779 44.0017 34.3885C44.0017 33.7991 43.5238 33.3213 42.9344 33.3213C42.345 33.3213 41.8672 33.7991 41.8672 34.3885C41.8672 34.9779 42.345 35.4558 42.9344 35.4558Z" fill="white"/>
<path d="M5.65388 35.1183C6.05977 35.1183 6.38881 34.7893 6.38881 34.3834C6.38881 33.9775 6.05977 33.6484 5.65388 33.6484C5.24799 33.6484 4.91895 33.9775 4.91895 34.3834C4.91895 34.7893 5.24799 35.1183 5.65388 35.1183Z" fill="white"/>
<path d="M47.5972 35.1183C48.0031 35.1183 48.3322 34.7893 48.3322 34.3834C48.3322 33.9775 48.0031 33.6484 47.5972 33.6484C47.1914 33.6484 46.8623 33.9775 46.8623 34.3834C46.8623 34.7893 47.1914 35.1183 47.5972 35.1183Z" fill="white"/>
<path d="M0.994906 34.8082C1.21862 34.8082 1.39997 34.6268 1.39997 34.4031C1.39997 34.1794 1.21862 33.998 0.994906 33.998C0.771196 33.998 0.589844 34.1794 0.589844 34.4031C0.589844 34.6268 0.771196 34.8082 0.994906 34.8082Z" fill="white"/>
<path d="M52.2508 34.8107C52.4718 34.8107 52.651 34.6315 52.651 34.4105C52.651 34.1894 52.4718 34.0103 52.2508 34.0103C52.0298 34.0103 51.8506 34.1894 51.8506 34.4105C51.8506 34.6315 52.0298 34.8107 52.2508 34.8107Z" fill="white"/>
<path d="M24.2992 40.9738C25.3829 40.9738 26.2614 40.0953 26.2614 39.0116C26.2614 37.9279 25.3829 37.0493 24.2992 37.0493C23.2154 37.0493 22.3369 37.9279 22.3369 39.0116C22.3369 40.0953 23.2154 40.9738 24.2992 40.9738Z" fill="white"/>
<path d="M28.9564 40.9787C30.0401 40.9787 30.9186 40.1002 30.9186 39.0165C30.9186 37.9327 30.0401 37.0542 28.9564 37.0542C27.8727 37.0542 26.9941 37.9327 26.9941 39.0165C26.9941 40.1002 27.8727 40.9787 28.9564 40.9787Z" fill="white"/>
<path d="M19.6431 40.7387C20.5915 40.7387 21.3603 39.9699 21.3603 39.0215C21.3603 38.073 20.5915 37.3042 19.6431 37.3042C18.6946 37.3042 17.9258 38.073 17.9258 39.0215C17.9258 39.9699 18.6946 40.7387 19.6431 40.7387Z" fill="white"/>
<path d="M33.6182 40.7339C34.5653 40.7339 35.333 39.9661 35.333 39.019C35.333 38.072 34.5653 37.3042 33.6182 37.3042C32.6711 37.3042 31.9033 38.072 31.9033 39.019C31.9033 39.9661 32.6711 40.7339 33.6182 40.7339Z" fill="white"/>
<path d="M14.9728 40.4086C15.7404 40.4086 16.3627 39.7863 16.3627 39.0187C16.3627 38.2512 15.7404 37.6289 14.9728 37.6289C14.2053 37.6289 13.583 38.2512 13.583 39.0187C13.583 39.7863 14.2053 40.4086 14.9728 40.4086Z" fill="white"/>
<path d="M38.28 40.4134C39.0489 40.4134 39.6722 39.7901 39.6722 39.0212C39.6722 38.2522 39.0489 37.6289 38.28 37.6289C37.511 37.6289 36.8877 38.2522 36.8877 39.0212C36.8877 39.7901 37.511 40.4134 38.28 40.4134Z" fill="white"/>
<path d="M10.3216 40.0812C10.9124 40.0812 11.3913 39.6023 11.3913 39.0116C11.3913 38.4208 10.9124 37.9419 10.3216 37.9419C9.73086 37.9419 9.25195 38.4208 9.25195 39.0116C9.25195 39.6023 9.73086 40.0812 10.3216 40.0812Z" fill="white"/>
<path d="M42.9349 40.0812C43.5256 40.0812 44.0045 39.6023 44.0045 39.0116C44.0045 38.4208 43.5256 37.9419 42.9349 37.9419C42.3441 37.9419 41.8652 38.4208 41.8652 39.0116C41.8652 39.6023 42.3441 40.0812 42.9349 40.0812Z" fill="white"/>
<path d="M5.65193 39.7492C6.05782 39.7492 6.38687 39.4201 6.38687 39.0142C6.38687 38.6083 6.05782 38.2793 5.65193 38.2793C5.24604 38.2793 4.91699 38.6083 4.91699 39.0142C4.91699 39.4201 5.24604 39.7492 5.65193 39.7492Z" fill="white"/>
<path d="M47.5962 39.7486C48.0048 39.7486 48.336 39.4174 48.336 39.0088C48.336 38.6003 48.0048 38.269 47.5962 38.269C47.1877 38.269 46.8564 38.6003 46.8564 39.0088C46.8564 39.4174 47.1877 39.7486 47.5962 39.7486Z" fill="white"/>
<path d="M0.994937 39.4264C1.21597 39.4264 1.39515 39.2472 1.39515 39.0262C1.39515 38.8052 1.21597 38.626 0.994937 38.626C0.773906 38.626 0.594727 38.8052 0.594727 39.0262C0.594727 39.2472 0.773906 39.4264 0.994937 39.4264Z" fill="white"/>
<path d="M52.2557 39.4263C52.4794 39.4263 52.6607 39.245 52.6607 39.0213C52.6607 38.7976 52.4794 38.6162 52.2557 38.6162C52.0319 38.6162 51.8506 38.7976 51.8506 39.0213C51.8506 39.245 52.0319 39.4263 52.2557 39.4263Z" fill="white"/>
<path d="M24.2972 45.6042C25.3809 45.6042 26.2595 44.7257 26.2595 43.6419C26.2595 42.5582 25.3809 41.6797 24.2972 41.6797C23.2135 41.6797 22.335 42.5582 22.335 43.6419C22.335 44.7257 23.2135 45.6042 24.2972 45.6042Z" fill="white"/>
<path d="M28.9583 45.6013C30.0421 45.6013 30.9206 44.7227 30.9206 43.639C30.9206 42.5553 30.0421 41.6768 28.9583 41.6768C27.8746 41.6768 26.9961 42.5553 26.9961 43.639C26.9961 44.7227 27.8746 45.6013 28.9583 45.6013Z" fill="white"/>
<path d="M19.6391 45.3594C20.5876 45.3594 21.3564 44.5905 21.3564 43.6421C21.3564 42.6937 20.5876 41.9248 19.6391 41.9248C18.6907 41.9248 17.9219 42.6937 17.9219 43.6421C17.9219 44.5905 18.6907 45.3594 19.6391 45.3594Z" fill="white"/>
<path d="M33.6147 45.3594C34.5632 45.3594 35.332 44.5905 35.332 43.6421C35.332 42.6937 34.5632 41.9248 33.6147 41.9248C32.6663 41.9248 31.8975 42.6937 31.8975 43.6421C31.8975 44.5905 32.6663 45.3594 33.6147 45.3594Z" fill="white"/>
<path d="M14.9733 45.0291C15.7422 45.0291 16.3656 44.4058 16.3656 43.6369C16.3656 42.868 15.7422 42.2446 14.9733 42.2446C14.2044 42.2446 13.5811 42.868 13.5811 43.6369C13.5811 44.4058 14.2044 45.0291 14.9733 45.0291Z" fill="white"/>
<path d="M38.28 45.0291C39.0489 45.0291 39.6722 44.4058 39.6722 43.6369C39.6722 42.868 39.0489 42.2446 38.28 42.2446C37.511 42.2446 36.8877 42.868 36.8877 43.6369C36.8877 44.4058 37.511 45.0291 38.28 45.0291Z" fill="white"/>
<path d="M10.3216 44.7091C10.9124 44.7091 11.3913 44.2302 11.3913 43.6395C11.3913 43.0487 10.9124 42.5698 10.3216 42.5698C9.73086 42.5698 9.25195 43.0487 9.25195 43.6395C9.25195 44.2302 9.73086 44.7091 10.3216 44.7091Z" fill="white"/>
<path d="M42.9344 44.7164C43.5265 44.7164 44.0065 44.2364 44.0065 43.6443C44.0065 43.0522 43.5265 42.5723 42.9344 42.5723C42.3423 42.5723 41.8623 43.0522 41.8623 43.6443C41.8623 44.2364 42.3423 44.7164 42.9344 44.7164Z" fill="white"/>
<path d="M5.65435 44.3795C6.06159 44.3795 6.39171 44.0494 6.39171 43.6421C6.39171 43.2349 6.06159 42.9048 5.65435 42.9048C5.24712 42.9048 4.91699 43.2349 4.91699 43.6421C4.91699 44.0494 5.24712 44.3795 5.65435 44.3795Z" fill="white"/>
<path d="M47.5982 44.3868C48.0068 44.3868 48.338 44.0556 48.338 43.647C48.338 43.2384 48.0068 42.9072 47.5982 42.9072C47.1896 42.9072 46.8584 43.2384 46.8584 43.647C46.8584 44.0556 47.1896 44.3868 47.5982 44.3868Z" fill="white"/>
<path d="M0.994466 44.0251C1.21416 44.0251 1.39225 43.847 1.39225 43.6273C1.39225 43.4076 1.21416 43.2295 0.994466 43.2295C0.774775 43.2295 0.59668 43.4076 0.59668 43.6273C0.59668 43.847 0.774775 44.0251 0.994466 44.0251Z" fill="white"/>
<path d="M52.2513 44.0299C52.471 44.0299 52.6491 43.8519 52.6491 43.6322C52.6491 43.4125 52.471 43.2344 52.2513 43.2344C52.0316 43.2344 51.8535 43.4125 51.8535 43.6322C51.8535 43.8519 52.0316 44.0299 52.2513 44.0299Z" fill="white"/>
<path d="M24.2967 50.2322C25.3791 50.2322 26.2566 49.3547 26.2566 48.2723C26.2566 47.1899 25.3791 46.3125 24.2967 46.3125C23.2144 46.3125 22.3369 47.1899 22.3369 48.2723C22.3369 49.3547 23.2144 50.2322 24.2967 50.2322Z" fill="white"/>
<path d="M28.9603 50.2341C30.044 50.2341 30.9225 49.3555 30.9225 48.2718C30.9225 47.1881 30.044 46.3096 28.9603 46.3096C27.8766 46.3096 26.998 47.1881 26.998 48.2718C26.998 49.3555 27.8766 50.2341 28.9603 50.2341Z" fill="white"/>
<path d="M19.6396 49.9824C20.5894 49.9824 21.3593 49.2124 21.3593 48.2627C21.3593 47.3129 20.5894 46.543 19.6396 46.543C18.6899 46.543 17.9199 47.3129 17.9199 48.2627C17.9199 49.2124 18.6899 49.9824 19.6396 49.9824Z" fill="white"/>
<path d="M33.6152 49.9824C34.565 49.9824 35.3349 49.2124 35.3349 48.2627C35.3349 47.3129 34.565 46.543 33.6152 46.543C32.6654 46.543 31.8955 47.3129 31.8955 48.2627C31.8955 49.2124 32.6654 49.9824 33.6152 49.9824Z" fill="white"/>
<path d="M14.9733 49.6502C15.7422 49.6502 16.3656 49.0269 16.3656 48.258C16.3656 47.4891 15.7422 46.8657 14.9733 46.8657C14.2044 46.8657 13.5811 47.4891 13.5811 48.258C13.5811 49.0269 14.2044 49.6502 14.9733 49.6502Z" fill="white"/>
<path d="M38.2824 49.6454C39.05 49.6454 39.6722 49.0231 39.6722 48.2556C39.6722 47.488 39.05 46.8657 38.2824 46.8657C37.5148 46.8657 36.8926 47.488 36.8926 48.2556C36.8926 49.0231 37.5148 49.6454 38.2824 49.6454Z" fill="white"/>
<path d="M10.3236 49.3395C10.9143 49.3395 11.3932 48.8606 11.3932 48.2699C11.3932 47.6791 10.9143 47.2002 10.3236 47.2002C9.73281 47.2002 9.25391 47.6791 9.25391 48.2699C9.25391 48.8606 9.73281 49.3395 10.3236 49.3395Z" fill="white"/>
<path d="M42.9368 49.3419C43.5276 49.3419 44.0065 48.8631 44.0065 48.2723C44.0065 47.6815 43.5276 47.2026 42.9368 47.2026C42.3461 47.2026 41.8672 47.6815 41.8672 48.2723C41.8672 48.8631 42.3461 49.3419 42.9368 49.3419Z" fill="white"/>
<path d="M5.78111 47.5873L5.54343 47.5844C5.21526 47.5804 4.94597 47.8432 4.94196 48.1714L4.93947 48.3751C4.93546 48.7033 5.19825 48.9725 5.52642 48.9766L5.7641 48.9795C6.09228 48.9835 6.36156 48.7207 6.36557 48.3925L6.36806 48.1888C6.37207 47.8606 6.10929 47.5913 5.78111 47.5873Z" fill="white"/>
<path d="M47.5972 49.0123C48.0031 49.0123 48.3322 48.6833 48.3322 48.2774C48.3322 47.8715 48.0031 47.5425 47.5972 47.5425C47.1914 47.5425 46.8623 47.8715 46.8623 48.2774C46.8623 48.6833 47.1914 49.0123 47.5972 49.0123Z" fill="white"/>
<path d="M0.997334 48.6607C1.22238 48.6607 1.40482 48.4782 1.40482 48.2532C1.40482 48.0281 1.22238 47.8457 0.997334 47.8457C0.772285 47.8457 0.589844 48.0281 0.589844 48.2532C0.589844 48.4782 0.772285 48.6607 0.997334 48.6607Z" fill="white"/>
<path d="M52.2464 48.6534C52.4688 48.6534 52.649 48.4732 52.649 48.2508C52.649 48.0284 52.4688 47.8481 52.2464 47.8481C52.024 47.8481 51.8438 48.0284 51.8438 48.2508C51.8438 48.4732 52.024 48.6534 52.2464 48.6534Z" fill="white"/>
<path d="M24.2756 54.8237C25.3659 54.837 26.2604 53.9813 26.2735 52.9124C26.2865 51.8435 25.4132 50.9662 24.3229 50.9528C23.2325 50.9395 22.338 51.7952 22.325 52.8641C22.3119 53.933 23.1852 54.8104 24.2756 54.8237Z" fill="white"/>
<path d="M28.9593 54.8479C30.0404 54.8479 30.9168 53.9716 30.9168 52.8905C30.9168 51.8095 30.0404 50.9331 28.9593 50.9331C27.8783 50.9331 27.002 51.8095 27.002 52.8905C27.002 53.9716 27.8783 54.8479 28.9593 54.8479Z" fill="white"/>
<path d="M19.6416 54.603C20.5913 54.603 21.3613 53.833 21.3613 52.8833C21.3613 51.9335 20.5913 51.1636 19.6416 51.1636C18.6918 51.1636 17.9219 51.9335 17.9219 52.8833C17.9219 53.833 18.6918 54.603 19.6416 54.603Z" fill="white"/>
<path d="M33.6157 54.6054C34.5668 54.6054 35.3378 53.8344 35.3378 52.8833C35.3378 51.9322 34.5668 51.1611 33.6157 51.1611C32.6646 51.1611 31.8936 51.9322 31.8936 52.8833C31.8936 53.8344 32.6646 54.6054 33.6157 54.6054Z" fill="white"/>
<path d="M14.9704 54.2729C15.7367 54.2729 16.3578 53.6517 16.3578 52.8855C16.3578 52.1192 15.7367 51.498 14.9704 51.498C14.2042 51.498 13.583 52.1192 13.583 52.8855C13.583 53.6517 14.2042 54.2729 14.9704 54.2729Z" fill="white"/>
<path d="M38.2829 54.2704C39.0492 54.2704 39.6703 53.6493 39.6703 52.883C39.6703 52.1168 39.0492 51.4956 38.2829 51.4956C37.5167 51.4956 36.8955 52.1168 36.8955 52.883C36.8955 53.6493 37.5167 54.2704 38.2829 54.2704Z" fill="white"/>
<path d="M10.3211 53.9602C10.9106 53.9602 11.3884 53.4823 11.3884 52.8929C11.3884 52.3035 10.9106 51.8257 10.3211 51.8257C9.73172 51.8257 9.25391 52.3035 9.25391 52.8929C9.25391 53.4823 9.73172 53.9602 10.3211 53.9602Z" fill="white"/>
<path d="M42.9373 53.9602C43.5268 53.9602 44.0046 53.4823 44.0046 52.8929C44.0046 52.3035 43.5268 51.8257 42.9373 51.8257C42.3479 51.8257 41.8701 52.3035 41.8701 52.8929C41.8701 53.4823 42.3479 53.9602 42.9373 53.9602Z" fill="white"/>
<path d="M5.64994 53.6402C6.05852 53.6402 6.38973 53.309 6.38973 52.9004C6.38973 52.4919 6.05852 52.1606 5.64994 52.1606C5.24137 52.1606 4.91016 52.4919 4.91016 52.9004C4.91016 53.309 5.24137 53.6402 5.64994 53.6402Z" fill="white"/>
<path d="M47.6021 53.6373C48.0107 53.6373 48.3419 53.3061 48.3419 52.8975C48.3419 52.4889 48.0107 52.1577 47.6021 52.1577C47.1935 52.1577 46.8623 52.4889 46.8623 52.8975C46.8623 53.3061 47.1935 53.6373 47.6021 53.6373Z" fill="white"/>
<path d="M0.991915 53.2978C1.22098 53.2978 1.40668 53.1121 1.40668 52.883C1.40668 52.654 1.22098 52.4683 0.991915 52.4683C0.762847 52.4683 0.577148 52.654 0.577148 52.883C0.577148 53.1121 0.762847 53.2978 0.991915 53.2978Z" fill="white"/>
<path d="M52.2431 53.2664C52.4561 53.2664 52.6287 53.0938 52.6287 52.8808C52.6287 52.6678 52.4561 52.4951 52.2431 52.4951C52.0301 52.4951 51.8574 52.6678 51.8574 52.8808C51.8574 53.0938 52.0301 53.2664 52.2431 53.2664Z" fill="white"/>
</svg>
