<svg width="174" height="44" viewBox="0 0 174 44" fill="none" xmlns="http://www.w3.org/2000/svg">
<g clip-path="url(#clip0_4778_32230)">
<path d="M18.1462 0.924194H19.1586C24.81 4.1559 30.4603 7.42678 36.1096 10.7369C37.0385 11.2813 37.5122 11.7763 37.5153 12.8343C37.5235 19.6091 37.5266 25.9147 37.5246 31.7512C37.5246 32.6143 37.3914 33.4279 36.6607 33.8733C36.5617 33.9331 35.4192 34.6086 33.2334 35.8996C33.0043 36.0336 32.7607 36.0749 32.5027 36.0233C26.518 34.8261 22.264 31.0613 19.5735 25.5487C19.5668 25.5358 19.5642 25.5212 19.5657 25.5068C19.5673 25.4924 19.573 25.4788 19.5822 25.4676C19.5915 25.4564 19.6037 25.4482 19.6176 25.4439C19.6314 25.4396 19.6462 25.4395 19.6601 25.4435L24.6665 26.6902C24.9101 26.75 24.9266 26.7139 24.7161 26.5819C18.7747 22.8202 14.1863 17.1095 10.4772 11.1699C10.1696 10.677 10.1149 10.7039 10.3131 11.2504C12.2017 16.4846 14.0211 21.4972 15.7715 26.288C17.8727 32.0378 21.653 36.3317 27.1124 39.1694C27.1399 39.1834 27.1631 39.2046 27.1795 39.2307C27.1959 39.2568 27.2049 39.2868 27.2055 39.3176C27.2062 39.3484 27.1984 39.3788 27.1831 39.4056C27.1678 39.4323 27.1455 39.4544 27.1186 39.4695L19.3443 43.9242H18.3938C9.78466 38.989 3.96918 35.6305 0.947402 33.8486C0.507758 33.5887 0.191957 33.1453 0 32.5184V12.2063C0.20847 11.5773 0.470605 11.171 0.786406 10.9874C6.5926 7.59487 12.3792 4.24045 18.1462 0.924194Z" fill="white"/>
<path d="M157.188 15.2689C157.188 15.0379 157.073 14.9224 156.842 14.9224H153.714C153.452 14.9224 153.321 15.0533 153.321 15.3153L153.318 22.5912C153.318 22.6798 153.354 22.7648 153.417 22.8275C153.48 22.8901 153.566 22.9253 153.656 22.9253H156.752C157.045 22.9253 157.191 22.7799 157.191 22.4892L157.194 20.9269C157.194 20.7991 157.258 20.7351 157.386 20.7351L160.312 20.7382C160.434 20.7382 160.498 20.798 160.504 20.9176C160.616 23.1821 160.888 25.7683 157.752 25.7714C155.94 25.7714 154.193 25.7631 152.513 25.7466C150.532 25.725 149.894 24.4659 149.919 22.7088C149.958 20.0545 149.963 17.4611 149.934 14.9286C149.913 13.0704 150.827 12.13 152.674 12.1073C154.689 12.0805 156.483 12.0867 158.058 12.1258C159.54 12.163 160.344 12.8662 160.47 14.2356C160.542 15.0234 160.555 15.9247 160.507 16.9394C160.501 17.0631 160.437 17.125 160.315 17.125L157.371 17.1219C157.255 17.1219 157.197 17.0631 157.194 16.9456L157.188 15.2689Z" fill="white"/>
<path d="M174 14.0964V23.7606C173.707 25.0723 172.881 25.7353 171.523 25.7497C169.22 25.7724 167.234 25.7662 165.566 25.7312C163.733 25.6941 163.145 24.4133 163.158 22.7738C163.182 20.0164 163.188 17.3632 163.176 14.8141C163.166 13.0426 164.04 12.1444 165.799 12.1197C167.664 12.0949 169.496 12.0794 171.294 12.0733C172.78 12.0691 173.682 12.7435 174 14.0964ZM170.631 15.2194C170.631 15.1373 170.599 15.0586 170.541 15.0006C170.483 14.9426 170.404 14.91 170.322 14.91H166.867C166.785 14.91 166.706 14.9426 166.648 15.0006C166.59 15.0586 166.557 15.1373 166.557 15.2194V22.6562C166.557 22.7383 166.59 22.8169 166.648 22.875C166.706 22.933 166.785 22.9656 166.867 22.9656H170.322C170.404 22.9656 170.483 22.933 170.541 22.875C170.599 22.8169 170.631 22.7383 170.631 22.6562V15.2194Z" fill="white"/>
<path d="M59.064 29.0227C59.223 28.8784 59.3014 28.6948 59.2993 28.4721C59.289 27.5605 59.2849 26.7077 59.287 25.9137C59.289 25.8044 59.3448 25.7498 59.4542 25.7498H64.1633C64.2706 25.7498 64.3264 25.8034 64.3305 25.9106C64.4234 28.0493 64.3986 29.5888 64.2562 30.5293C63.9342 32.6483 62.1601 33.4588 60.2158 33.465C57.5697 33.4712 54.9896 33.4733 52.4756 33.4712C50.1226 33.4681 48.0544 32.4967 48.0606 29.8394C48.0688 25.6858 48.0585 21.492 48.0296 17.258C48.0193 15.8247 48.1741 14.808 48.494 14.2078C49.1524 12.9828 50.3382 12.3579 52.0514 12.3331C54.648 12.296 57.3808 12.2888 60.2498 12.3115C62.2159 12.327 64.024 13.1684 64.2655 15.3122C64.3934 16.4527 64.4161 17.9695 64.3336 19.8628C64.3295 19.9721 64.2727 20.0267 64.1633 20.0267H59.4449C59.3417 20.0267 59.2901 19.9752 59.2901 19.8721V17.1652C59.2901 17.0217 59.233 16.884 59.1314 16.7824C59.0298 16.6809 58.8919 16.6239 58.7482 16.6239H53.7945C53.6303 16.6239 53.4728 16.689 53.3567 16.8051C53.2405 16.9211 53.1753 17.0785 53.1753 17.2426V28.5711C53.1753 28.7253 53.2363 28.8732 53.3449 28.9823C53.4534 29.0914 53.6007 29.1526 53.7543 29.1526H58.7328C58.8543 29.1528 58.9725 29.1064 59.064 29.0227Z" fill="white"/>
<path d="M79.7397 28.701L72.6249 28.6979C72.6041 28.6977 72.5838 28.7042 72.5671 28.7164C72.5503 28.7287 72.538 28.7461 72.532 28.7659L71.1728 33.4031C71.1668 33.423 71.1544 33.4404 71.1377 33.4526C71.121 33.4649 71.1007 33.4714 71.0799 33.4712H66.2283C66.2132 33.471 66.1983 33.4673 66.1848 33.4602C66.1714 33.4532 66.1598 33.4431 66.151 33.4307C66.1423 33.4183 66.1366 33.404 66.1344 33.389C66.1322 33.374 66.1337 33.3587 66.1386 33.3444L73.2503 12.3703C73.2567 12.3515 73.2687 12.3352 73.2848 12.3235C73.3009 12.3119 73.3202 12.3055 73.3401 12.3053H79.2133C79.2332 12.3055 79.2525 12.3119 79.2686 12.3235C79.2846 12.3352 79.2967 12.3515 79.3031 12.3703L86.4798 33.3413C86.4847 33.3556 86.4862 33.3709 86.484 33.3859C86.4818 33.4009 86.4761 33.4152 86.4673 33.4276C86.4586 33.44 86.447 33.4501 86.4336 33.4571C86.4201 33.4642 86.4052 33.4679 86.39 33.4681L81.3156 33.4712C81.2948 33.4714 81.2745 33.4649 81.2578 33.4526C81.241 33.4404 81.2287 33.423 81.2227 33.4031L79.8325 28.769C79.8265 28.7492 79.8142 28.7318 79.7975 28.7195C79.7807 28.7073 79.7604 28.7008 79.7397 28.701ZM76.0987 16.8559L73.8385 24.435C73.8076 24.5381 73.853 24.5897 73.9747 24.5897H78.3588C78.5012 24.5897 78.5528 24.5206 78.5136 24.3824L76.2628 16.8559C76.2091 16.6723 76.1544 16.6723 76.0987 16.8559Z" fill="white"/>
<path d="M96.056 16.6826V33.3444C96.056 33.3772 96.043 33.4087 96.0198 33.4319C95.9965 33.4551 95.965 33.4681 95.9322 33.4681L91.062 33.4712C91.0292 33.4712 90.9977 33.4582 90.9745 33.435C90.9512 33.4117 90.9382 33.3803 90.9382 33.3475V16.6826C90.9382 16.6498 90.9252 16.6183 90.9019 16.5951C90.8787 16.5719 90.8472 16.5589 90.8144 16.5589H85.356C85.3231 16.5589 85.2916 16.5459 85.2684 16.5227C85.2452 16.4994 85.2321 16.468 85.2321 16.4352V12.429C85.2321 12.3962 85.2452 12.3647 85.2684 12.3415C85.2916 12.3183 85.3231 12.3053 85.356 12.3053H101.623C101.656 12.3053 101.687 12.3183 101.71 12.3415C101.734 12.3647 101.747 12.3962 101.747 12.429L101.744 16.4352C101.744 16.468 101.73 16.4994 101.707 16.5227C101.684 16.5459 101.653 16.5589 101.62 16.5589H96.1799C96.147 16.5589 96.1155 16.5719 96.0923 16.5951C96.0691 16.6183 96.056 16.6498 96.056 16.6826Z" fill="white"/>
<path d="M115.125 16.7878C115.083 16.7366 115.031 16.6953 114.972 16.667C114.912 16.6386 114.847 16.6239 114.781 16.6238H109.756C109.613 16.6238 109.475 16.6809 109.373 16.7824C109.271 16.8839 109.214 17.0216 109.214 17.1652V28.6112C109.214 28.7548 109.271 28.8925 109.373 28.994C109.475 29.0956 109.613 29.1526 109.756 29.1526H114.704C114.866 29.1526 115.022 29.0881 115.137 28.9732C115.252 28.8583 115.317 28.7025 115.317 28.5401V25.9106C115.317 25.8033 115.37 25.7497 115.478 25.7497H120.196C120.332 25.7497 120.397 25.8178 120.391 25.9539C120.317 27.5409 120.574 29.4186 120.206 30.854C119.76 32.5761 118.435 33.4443 116.23 33.4588C113.776 33.4753 111.198 33.4753 108.496 33.4588C106.069 33.4433 104.093 32.5307 104.093 29.7311C104.091 25.9075 104.09 21.4126 104.09 16.2464C104.09 13.8737 105.49 12.3888 107.979 12.3393C110.109 12.298 112.777 12.2877 115.982 12.3083C118.283 12.3238 120.298 13.1683 120.354 15.8009C120.381 17.0961 120.385 18.4737 120.367 19.9339C120.367 19.9958 120.336 20.0267 120.274 20.0267H115.49C115.373 20.0267 115.314 19.9689 115.314 19.8535C115.314 19.0491 115.318 18.2221 115.326 17.3724C115.328 17.1497 115.261 16.9548 115.125 16.7878Z" fill="white"/>
<path d="M136.55 20.4258V12.4105C136.55 12.3967 136.552 12.383 136.558 12.3702C136.563 12.3575 136.571 12.3459 136.581 12.3361C136.59 12.3263 136.602 12.3186 136.615 12.3133C136.627 12.308 136.641 12.3053 136.655 12.3053L141.606 12.3084C141.619 12.3084 141.633 12.3111 141.646 12.3164C141.659 12.3217 141.67 12.3294 141.68 12.3392C141.69 12.349 141.698 12.3606 141.703 12.3733C141.708 12.3861 141.711 12.3998 141.711 12.4136V33.3629C141.711 33.3908 141.7 33.4176 141.68 33.4373C141.66 33.457 141.634 33.4681 141.606 33.4681L136.655 33.4712C136.627 33.4712 136.6 33.4601 136.581 33.4404C136.561 33.4207 136.55 33.3939 136.55 33.366V24.8619C136.55 24.834 136.539 24.8073 136.519 24.7875C136.499 24.7678 136.472 24.7567 136.444 24.7567H129.444C129.416 24.7567 129.39 24.7678 129.37 24.7875C129.35 24.8073 129.339 24.834 129.339 24.8619V33.3629C129.339 33.3908 129.328 33.4176 129.308 33.4373C129.288 33.457 129.262 33.4681 129.234 33.4681L124.323 33.4712C124.295 33.4712 124.269 33.4601 124.249 33.4404C124.229 33.4207 124.218 33.3939 124.218 33.366V12.4105C124.218 12.3967 124.221 12.383 124.226 12.3702C124.231 12.3575 124.239 12.3459 124.249 12.3361C124.259 12.3263 124.27 12.3186 124.283 12.3133C124.296 12.308 124.309 12.3053 124.323 12.3053L129.234 12.3084C129.262 12.3084 129.288 12.3195 129.308 12.3392C129.328 12.3589 129.339 12.3857 129.339 12.4136V20.4258C129.339 20.4537 129.35 20.4804 129.37 20.5002C129.39 20.5199 129.416 20.531 129.444 20.531H136.444C136.472 20.531 136.499 20.5199 136.519 20.5002C136.539 20.4804 136.55 20.4537 136.55 20.4258Z" fill="white"/>
<path d="M173.817 29.3228H149.99C149.932 29.3228 149.885 29.3698 149.885 29.4279V33.4124C149.885 33.4705 149.932 33.5176 149.99 33.5176H173.817C173.875 33.5176 173.923 33.4705 173.923 33.4124V29.4279C173.923 29.3698 173.875 29.3228 173.817 29.3228Z" fill="white"/>
</g>
<defs>
<clipPath id="clip0_4778_32230">
<rect width="174" height="43" fill="white" transform="translate(0 0.924194)"/>
</clipPath>
</defs>
</svg>
