<svg width="124" height="31" viewBox="0 0 124 31" fill="none" xmlns="http://www.w3.org/2000/svg">
<path d="M46.2752 11.3829C46.4822 12.3914 45.3947 13.4666 43.8461 13.7845C42.2976 14.1024 40.8744 13.5425 40.6674 12.534C40.4604 11.5255 41.5479 10.4502 43.0965 10.1324C44.645 9.8145 46.0681 10.3744 46.2752 11.3829Z" fill="white"/>
<path d="M27.2012 13.7845C28.7503 13.4665 29.8383 12.3912 29.6312 11.3827C29.4242 10.3742 28.0006 9.81438 26.4515 10.1324C24.9024 10.4503 23.8145 11.5257 24.0215 12.5342C24.2285 13.5427 25.6521 14.1025 27.2012 13.7845Z" fill="white"/>
<path d="M62.1978 11.3829C62.4049 12.3919 61.3175 13.4676 59.769 13.7855C58.2204 14.1034 56.7972 13.543 56.5901 12.534C56.3829 11.5249 57.4703 10.4492 59.0189 10.1314C60.5674 9.81349 61.9907 10.3738 62.1978 11.3829Z" fill="white"/>
<path d="M89.9227 11.8375C90.6178 11.9505 91.3201 11.8527 92.0297 11.544C92.7406 11.234 93.4867 10.6047 93.2738 9.72021C93.0919 8.96588 92.3128 8.76025 91.6339 8.89355C90.7101 9.07541 89.9923 9.6093 89.4804 10.4952C89.2128 10.9592 89.2748 11.7311 89.9227 11.8375Z" fill="white"/>
<path fill-rule="evenodd" clip-rule="evenodd" d="M13.8322 0.182556H13.238C10.8014 0.307589 8.87736 1.27479 6.9347 2.76486C4.74403 4.44643 3.02319 6.60541 1.77217 9.24179C0.944122 10.9854 0.384055 12.8319 0.0919666 14.7815C0.0547667 15.0281 0.0241111 15.2768 0 15.5276V16.2891C0.0899 17.9889 0.625166 19.7167 1.5996 21.1168C1.86482 21.4978 2.25163 21.9408 2.76003 22.4457C4.56217 24.2334 6.42871 26.0968 8.35966 28.036C9.33858 29.0191 10.5128 29.5616 11.8823 29.6635C13.2091 29.7617 14.8604 29.5116 15.7449 28.4752C15.7731 28.4421 15.7931 28.4463 15.8048 28.4876C15.9399 28.9526 16.1779 29.348 16.5189 29.6739C17.0975 30.2271 17.8005 30.5577 18.6279 30.6659H19.2334C19.881 30.5832 20.4424 30.3655 20.9178 30.0128C22.2208 29.0456 22.9679 27.3478 23.3626 25.7555C23.3631 25.7536 23.3638 25.7517 23.3646 25.7499C23.3653 25.7486 23.3661 25.7473 23.3669 25.746C23.3677 25.7449 23.3686 25.7438 23.3696 25.7428C23.373 25.7392 23.3773 25.7367 23.382 25.7353C23.3867 25.7339 23.3917 25.7338 23.3965 25.735C23.4012 25.7362 23.4056 25.7386 23.4091 25.742C24.0746 26.4144 24.7215 27.0616 25.3497 27.6837C26.6032 28.9226 28.1945 29.5096 29.9429 29.5116C33.5172 29.5158 36.7247 27.4377 38.8234 24.6343C38.8238 24.6337 38.8242 24.6332 38.8247 24.6326C38.8252 24.6321 38.8257 24.6316 38.8262 24.6311C38.8277 24.6297 38.8295 24.6284 38.8314 24.6274C38.8345 24.6257 38.838 24.6248 38.8416 24.6246C38.8443 24.6244 38.8469 24.6247 38.8494 24.6253C38.8504 24.6256 38.8514 24.6259 38.8524 24.6263C38.8558 24.6276 38.859 24.6296 38.8616 24.6322C39.8956 25.6718 40.8945 26.6724 41.8583 27.6341C43.3029 29.0756 45.1143 29.5705 47.1231 29.5199C49.661 29.4548 52.1709 28.1538 53.9772 26.4054C54.1363 26.2511 54.2703 26.0817 54.3792 25.897C54.3819 25.8925 54.3856 25.8886 54.39 25.8856C54.3945 25.8827 54.3995 25.8808 54.4048 25.8801C54.4076 25.8798 54.4105 25.8797 54.4133 25.88C54.4157 25.8803 54.4181 25.8808 54.4205 25.8816C54.4255 25.8833 54.4301 25.8861 54.4339 25.8898C55.2158 26.6779 55.9636 27.4247 56.6773 28.1301C57.2136 28.6602 57.9318 29.0621 58.682 29.2151C60.7848 29.6439 62.9124 29.2791 64.9822 28.5775C66.2835 28.1359 67.5252 27.5779 68.7073 26.9035C69.0504 26.7072 69.3642 26.4988 69.6487 26.2783C69.6571 26.2718 69.6675 26.2685 69.678 26.2691C69.6885 26.2697 69.6983 26.2741 69.7056 26.2814C70.3689 26.9552 70.9903 27.5766 71.5697 28.1456C72.943 29.4912 74.5394 29.2752 76.1571 29.0563C76.952 28.9488 77.752 28.8405 78.5333 28.9164C79.4912 29.0094 80.506 29.1345 81.4814 29.2926C82.2006 29.4097 82.915 29.4527 83.6245 29.4217C85.7739 29.3287 87.2794 27.8635 88.165 25.9766C88.1663 25.9739 88.1682 25.9716 88.1706 25.9698C88.1729 25.968 88.1757 25.9668 88.1787 25.9663C88.1816 25.9658 88.1846 25.966 88.1874 25.9669C88.1903 25.9678 88.1929 25.9693 88.195 25.9714C88.7048 26.4612 89.2176 26.9724 89.7336 27.5049C90.3143 28.1042 90.8159 28.542 91.2381 28.8183C94.1893 30.7516 97.5756 29.9053 100.334 28.1466C101.756 27.2393 102.969 26.1967 103.972 25.0187C103.998 24.9891 104.025 24.9881 104.054 25.0156C104.64 25.5908 105.188 26.1392 105.697 26.6607C106.171 27.1477 106.627 27.5359 107.064 27.8252C109.052 29.1458 111.551 29.7927 113.843 29.6315C115.393 29.522 116.951 29.0146 118.332 28.3212C119.44 27.7632 120.499 26.949 121.182 25.9136C122.476 23.9502 122.3 21.4961 121.205 19.4377C121.06 19.1663 120.882 18.9227 120.672 18.7071C120.668 18.7035 120.665 18.6991 120.664 18.6942C120.663 18.6893 120.662 18.6841 120.664 18.6792C120.664 18.6758 120.666 18.6727 120.667 18.6698C120.668 18.6684 120.669 18.6671 120.67 18.6658C120.674 18.662 120.678 18.6592 120.683 18.6575C122.571 18.0148 123.774 16.3201 124 14.3754V13.6211C123.811 12.0931 123.173 10.7839 122.084 9.69335C120.031 7.63702 117.933 5.54039 115.792 3.40346C115.687 3.29874 115.492 3.14271 115.206 2.93536C114.256 2.24406 113.1 1.75839 111.948 1.46596C109.137 0.750889 106.239 1.47939 103.852 3.12652C103.082 3.65834 102.419 4.27628 101.865 4.98032C101.847 5.00374 101.827 5.00478 101.806 4.98342C101.145 4.33035 100.436 3.62252 99.6784 2.85992C98.3144 1.48869 96.3872 1.09292 94.5024 1.31509C93.1219 1.47836 91.8375 1.81006 90.5944 2.47139C88.3975 3.63906 86.2358 5.33992 84.7374 7.34459C84.7195 7.36939 84.6996 7.37076 84.6775 7.34872C82.6997 5.37505 80.7715 3.44754 78.8929 1.56619C77.9794 0.651689 76.6971 0.414023 75.4323 0.353056C73.2943 0.250756 70.371 0.285889 69.0132 2.14796C68.1648 3.31046 68.1866 4.82739 68.3085 6.19655C68.3147 6.26613 68.293 6.27612 68.2434 6.22652C67.3809 5.3661 66.5694 4.55666 65.8088 3.79819C63.828 1.82039 61.0896 0.830456 58.3286 0.917256C55.7928 0.996823 53.9824 2.26472 53.2921 4.84185C53.2906 4.84782 53.2876 4.85328 53.2834 4.85767C53.2791 4.86206 53.2737 4.86521 53.2678 4.8668C53.2618 4.86839 53.2556 4.86835 53.2497 4.86669C53.2438 4.86502 53.2384 4.8618 53.2342 4.85735C52.453 4.06789 51.6994 3.31562 50.9733 2.60056C49.5091 1.15906 47.3711 0.596923 45.3809 0.896589C43.556 1.17214 42.0105 1.78422 40.7443 2.73282C39.8997 3.36453 39.1006 4.05135 38.347 4.79329C38.1792 4.95851 38.0248 5.15462 37.8705 5.35052C37.7788 5.46704 37.6871 5.58349 37.5927 5.69332C37.5651 5.72501 37.5365 5.72604 37.5069 5.69642C36.5349 4.73198 35.569 3.76512 34.6094 2.79586C33.4108 1.58479 31.931 0.932411 30.1702 0.838723C28.53 0.751234 26.9896 1.09533 25.5492 1.87102C24.0539 2.67496 22.63 3.86432 21.4923 5.16322C21.4879 5.16811 21.4826 5.17205 21.4766 5.17482C21.4706 5.17758 21.4642 5.17911 21.4576 5.1793C21.451 5.17949 21.4445 5.17835 21.4384 5.17594C21.4323 5.17353 21.4267 5.16991 21.422 5.16529C20.4101 4.14504 19.4284 3.16613 18.477 2.22856C17.2649 1.03299 15.5279 0.278656 13.8322 0.182556ZM12.029 21.3297C12.0983 20.8771 12.0766 20.3883 11.6457 20.13C11.5217 20.0563 11.3956 20.0649 11.2675 20.1558C10.7914 20.4934 10.3295 20.8058 9.88176 21.0931C8.3173 22.0965 6.0729 22.6379 4.4051 21.617C2.4831 20.441 1.6771 18.4395 1.66057 16.2075C1.64093 13.5601 2.5141 11.0047 3.81197 8.71375C5.28137 6.12147 7.34734 4.0951 10.0099 2.63466C11.0074 2.08768 12.0359 1.7949 13.0954 1.75632C13.9483 1.72601 14.6613 1.81901 15.2344 2.03532C16.6491 2.56956 17.7496 3.34042 18.3871 4.68892C19.1384 6.28025 19.1508 8.23635 18.3768 9.78635C17.5987 11.3477 15.6199 11.4139 14.2652 10.6626C13.9849 10.5073 13.7109 10.3365 13.4384 10.1667C12.2644 9.43482 11.1198 8.72131 9.63273 9.34615C8.56943 9.79359 7.75 10.7267 7.20233 11.7476C6.74456 12.6001 6.6371 13.5301 6.82 14.4353C7.0866 15.7528 8.15196 16.8347 9.5852 16.224C9.81598 16.1255 9.99164 15.9657 10.1122 15.7446C10.5028 15.0264 10.1794 14.4095 9.5666 13.992C9.03546 13.6314 8.56737 13.0724 8.82776 12.378C8.94143 12.0762 9.11193 11.8351 9.33926 11.6546C10.6557 10.6089 12.4703 10.8889 13.6751 12.0215C14.0788 12.4003 14.4632 12.7927 14.8283 13.1984C16.7658 15.3519 16.9673 18.301 16.7276 21.0528C16.5643 22.9262 14.2807 23.4057 12.8681 22.7671C12.2905 22.5056 11.9278 21.9807 12.029 21.3297ZM66.6045 17.803C67.8941 15.4759 68.8665 13.061 69.4472 10.4363C69.8351 8.68241 69.9642 6.92678 69.8347 5.16942C69.8271 5.06884 69.8351 4.88732 69.8585 4.62485C70.0393 2.64602 71.5976 1.96402 73.3573 1.85242C74.1585 1.80144 74.958 1.79077 75.7557 1.82039C77.4049 1.88239 78.6522 2.66049 78.1675 4.50809C77.5827 6.73595 76.2321 8.52259 74.7988 10.3888L74.7766 10.4177C73.9238 11.5294 71.3839 14.8402 73.2768 15.9936C73.8275 16.3294 74.6935 16.2034 75.2422 15.8841C75.6045 15.6733 75.9483 15.4132 76.2734 15.1039C76.3523 15.0287 76.4333 14.9506 76.5164 14.8706C77.5535 13.8714 78.9108 12.5637 80.3726 12.7024C82.1882 12.874 82.429 14.6358 82.0229 16.1073C81.6929 17.3045 81.2207 18.5304 80.6062 19.7849C80.1091 20.8006 79.2453 21.7627 78.1417 22.0179C77.2241 22.2306 76.2627 22.0812 75.3216 21.935C75.0279 21.8894 74.7363 21.8441 74.4485 21.8102C73.781 21.731 73.1083 21.6552 72.4305 21.5829C71.3351 21.4661 70.4289 21.5808 69.3687 21.7751C69.0043 21.8419 68.5313 21.8571 67.9499 21.8205C67.3389 21.782 66.858 21.5846 66.5074 21.2284C65.534 20.2385 66.0331 18.8332 66.6045 17.803ZM35.2987 15.416C35.3772 13.9672 35.7147 12.5226 36.3113 11.0822C36.6261 10.3237 37.0539 9.4581 37.5947 8.48539C38.0666 7.63805 38.6628 6.80484 39.3834 5.98575C39.7962 5.51679 40.2968 5.10456 40.7887 4.69951C40.9124 4.59763 41.0356 4.49618 41.1566 4.39442C42.0687 3.62907 43.1096 3.05798 44.2794 2.68116C45.1157 2.4118 46.0129 2.32879 46.9712 2.43212C48.7416 2.62226 50.0336 3.4906 50.8472 5.03715C52.3766 7.94082 51.5385 11.6329 50.1053 14.4136C49.2938 15.987 48.4506 17.3176 47.5757 18.4054C46.2251 20.0846 44.3662 21.3111 42.2013 21.7461C40.4178 22.1047 38.5785 21.9497 37.1917 20.7386C35.7254 19.4583 35.1943 17.3659 35.2987 15.416ZM18.9214 13.464C19.1618 12.3941 19.478 11.4442 19.87 10.6141C20.1627 9.99474 20.4748 9.37061 20.8062 8.74165C21.4293 7.55745 22.3851 6.24305 23.4267 5.30995C24.1989 4.61831 24.882 4.07788 25.4758 3.68866C26.0028 3.34352 26.6617 3.02836 27.4526 2.74316C27.5816 2.69678 27.7131 2.65514 27.8466 2.61814C28.781 2.35911 29.8108 2.32724 30.7448 2.48999C30.9855 2.5319 31.2146 2.5879 31.4325 2.65684C34.7014 3.69099 35.4456 7.63876 34.7975 10.6874C34.7814 10.763 34.7648 10.8381 34.7478 10.9129C34.4921 12.0345 34.1305 13.0671 33.6629 14.0106C33.6048 14.1277 33.5466 14.2435 33.4883 14.3579C32.6131 16.0738 31.7086 17.4843 30.7747 18.5893C30.5498 18.8555 30.3123 19.109 30.0633 19.3486C28.3203 21.0254 26.0175 22.0186 23.5889 21.9001C21.6766 21.8057 20.2802 20.9205 19.3998 19.2445C18.6041 17.73 18.5031 15.9093 18.7803 14.1923C18.8199 13.947 18.8672 13.7038 18.9214 13.464ZM51.1252 17.5942C51.4125 16.6938 51.8372 15.6826 52.3993 14.5604C52.7152 13.9294 52.9346 13.2423 53.1566 12.5471L53.1898 12.4431C53.6231 11.0853 53.9651 9.72573 54.2159 8.36449C54.355 7.61015 54.4863 6.85995 54.6096 6.11389C54.7253 5.41398 54.8789 4.86734 55.0705 4.47399C55.8134 2.94982 57.3355 2.40319 58.9868 2.45486C60.3033 2.49516 61.4027 2.81032 62.5415 3.36212C64.8034 4.45746 66.4547 6.65019 66.9197 9.10539C67.5407 12.3821 66.371 15.3664 64.1245 17.7565C63.4969 18.4247 62.7178 19.0292 61.7871 19.5699C59.8596 20.6894 57.8432 21.4003 55.738 21.7027C54.653 21.8588 53.2487 21.9621 52.2887 21.3948C50.8958 20.5712 50.6602 19.0523 51.1252 17.5942ZM110.482 9.60345C109.845 9.00102 108.637 8.74992 108.105 9.63962C107.372 10.8641 109.347 11.759 110.183 11.945C110.497 12.0146 110.791 12.0893 111.063 12.1692C113.472 12.8812 114.782 15.015 114.281 17.4992C113.902 19.3809 112.573 20.3966 110.921 21.1427C109.339 21.8577 107.679 22.1057 105.94 21.8867C105.223 21.7964 104.564 21.6542 103.964 21.4599C102.261 20.9102 100.414 19.6991 99.7559 17.9621C99.1662 16.4038 99.4149 15.0639 100.502 13.9424C101.186 13.2356 102.171 12.69 103.159 12.8347C103.767 12.9236 104.191 13.2563 104.422 13.8277C104.852 14.8869 105.838 16.0184 107.075 15.7384C108.111 15.5048 108.518 14.4095 107.642 13.68C107.291 13.3865 106.879 13.154 106.452 12.9938C106.237 12.913 106.02 12.8348 105.802 12.7565C104.917 12.438 104.027 12.1175 103.274 11.6133C101.447 10.3878 101.786 7.93152 102.827 6.34639C103.532 5.27379 104.457 4.54839 105.563 3.93666C107.935 2.62536 110.711 2.34326 113.169 3.53262C114.411 4.13402 115.308 4.95449 115.859 5.99402C116.554 7.30222 116.615 8.55979 115.827 9.82252C115.353 10.5844 114.66 11.0618 113.749 11.2547C112.459 11.5271 111.61 10.6996 110.785 9.89623C110.684 9.79758 110.583 9.69929 110.482 9.60345ZM89.3885 5.02889C91.2113 3.64216 93.6065 2.60366 95.9109 2.82996C97.8132 3.01699 99.3395 3.99452 99.2682 6.12215C99.2399 6.97018 99.0033 7.84644 98.5583 8.75095C97.6317 10.633 96.1541 11.9471 94.1253 12.6931C92.9442 13.1271 91.5533 13.3772 90.2668 13.2966C89.7202 13.2615 89.0754 13.3762 89.0247 14.021C89.0089 14.2276 89.0585 14.4419 89.1735 14.6637C89.7326 15.7425 91.0253 15.8748 92.103 15.4831C92.8636 15.2069 93.5528 14.8066 94.1707 14.2824C94.3135 14.1611 94.4559 14.0324 94.5997 13.9026C95.439 13.1443 96.3225 12.3463 97.5735 12.7407C97.9104 12.8471 98.2317 13.0775 98.3888 13.3999C99.3994 15.4707 96.1454 18.8115 94.6843 20.0349C92.7654 21.6407 90.1211 22.7154 87.5998 22.0923C86.5747 21.8381 85.6716 21.3866 85.0319 20.5382C83.2112 18.1233 83.0035 14.9665 83.98 12.1041C84.7516 9.84043 86.0112 7.92084 87.7589 6.34535C88.124 6.01675 88.6672 5.57793 89.3885 5.02889Z" fill="white"/>
<path d="M118.526 2.89505L118.505 2.69355C118.498 2.63431 118.518 2.62432 118.564 2.66359C118.624 2.71618 118.665 2.77589 118.703 2.8321C118.781 2.94707 118.849 3.04734 119.06 3.04179C119.072 3.04151 119.084 3.03771 119.095 3.03082C119.105 3.02393 119.114 3.01423 119.119 3.00282C119.124 2.99141 119.126 2.97874 119.125 2.96627C119.123 2.95379 119.118 2.94201 119.11 2.93225L118.919 2.69355C118.888 2.65429 118.895 2.62363 118.939 2.60159C119.208 2.46415 119.214 2.07459 119.001 1.90099C118.872 1.79627 118.68 1.80244 118.501 1.8082C118.436 1.81028 118.372 1.81231 118.315 1.80902C118.264 1.80626 118.239 1.83037 118.239 1.88135L118.24 2.92812C118.24 3.0101 118.281 3.04592 118.363 3.03559L118.42 3.02939C118.499 3.01905 118.535 2.97427 118.526 2.89505Z" fill="white"/>
<path fill-rule="evenodd" clip-rule="evenodd" d="M119.907 2.41557C119.907 2.74444 119.776 3.05984 119.544 3.29239C119.311 3.52493 118.996 3.65557 118.667 3.65557C118.338 3.65557 118.023 3.52493 117.79 3.29239C117.558 3.05984 117.427 2.74444 117.427 2.41557C117.427 2.08671 117.558 1.77131 117.79 1.53876C118.023 1.30622 118.338 1.17558 118.667 1.17558C118.996 1.17558 119.311 1.30622 119.544 1.53876C119.776 1.77131 119.907 2.08671 119.907 2.41557ZM119.68 2.41661C119.68 2.14748 119.573 1.88938 119.382 1.69908C119.192 1.50878 118.934 1.40188 118.665 1.40188C118.396 1.40188 118.138 1.50878 117.947 1.69908C117.757 1.88938 117.65 2.14748 117.65 2.41661C117.65 2.68573 117.757 2.94383 117.947 3.13413C118.138 3.32443 118.396 3.43134 118.665 3.43134C118.934 3.43134 119.192 3.32443 119.382 3.13413C119.573 2.94383 119.68 2.68573 119.68 2.41661Z" fill="white"/>
</svg>
