<svg width="219" height="27" viewBox="0 0 219 27" fill="none" xmlns="http://www.w3.org/2000/svg">
<path d="M153.091 0.878294C155.684 0.869845 158.278 0.861368 160.939 0.852632C161.753 0.848906 162.564 0.845179 163.41 0.84133C164.413 0.839487 164.413 0.839487 164.884 0.839132C165.209 0.838509 165.535 0.837085 165.86 0.834983C170.351 0.807546 170.351 0.807546 172.453 1.71404C172.549 1.75499 172.645 1.79594 172.745 1.83812C174.328 2.55064 175.407 3.8037 176.062 5.40074C176.844 7.65298 176.798 9.93252 175.785 12.1029C174.828 13.9046 173.178 15.1331 171.24 15.7474C170.881 15.8463 170.52 15.9398 170.157 16.0245C170.554 16.8012 171.061 17.4304 171.618 18.0993C171.888 18.4255 172.15 18.7545 172.408 19.0903C172.749 19.5325 173.1 19.9652 173.458 20.3952C174.113 21.191 174.727 22.0195 175.341 22.8385C176.361 24.2035 176.361 24.2035 177.43 25.5412C177.665 25.8497 177.665 25.8497 177.665 26.1227C177.057 26.1464 176.451 26.1636 175.849 26.1752C175.643 26.18 175.437 26.1865 175.231 26.1949C173.525 26.2621 173.525 26.2621 172.979 25.9151C172.689 25.5861 172.482 25.3404 172.482 24.8941H172.209C172.045 24.7207 172.045 24.7207 171.861 24.4723C171.791 24.3803 171.721 24.288 171.65 24.1938C171.575 24.0927 171.5 23.9918 171.424 23.8867C171.263 23.6724 171.102 23.4581 170.941 23.2438C170.857 23.1327 170.774 23.0213 170.688 22.9066C170.288 22.3784 169.88 21.857 169.47 21.3369C168.735 20.3937 168.01 19.4396 167.3 18.4841C167.234 18.4011 167.167 18.3175 167.099 18.2329C166.889 17.9326 166.889 17.9326 166.695 17.5095C166.42 16.9949 166.17 16.5881 165.661 16.2946C164.644 16.0312 163.572 16.0885 162.535 16.1185C162.033 16.1324 161.53 16.1326 161.033 16.1306C160.713 16.1342 160.392 16.1385 160.071 16.1437C159.922 16.1439 159.772 16.1441 159.618 16.1443C158.888 16.1713 158.429 16.2162 157.898 16.7476C157.832 16.8286 157.766 16.9101 157.697 16.9933C157.479 17.25 157.479 17.25 157.117 17.5025C156.765 17.7687 156.765 17.7687 156.709 18.1781C156.708 18.3242 156.707 18.4716 156.706 18.6231C156.704 18.7897 156.701 18.9562 156.698 19.1282C156.699 19.3971 156.699 19.3971 156.7 19.6714C156.698 19.8571 156.696 20.0427 156.694 20.2297C156.688 20.7184 156.687 21.2057 156.686 21.6903C156.685 22.1885 156.68 22.6881 156.675 23.1918C156.666 24.1691 156.662 25.1437 156.66 26.1265H153.111V0.874143L153.091 0.878294ZM156.64 4.15428V12.7537C158.81 12.7657 158.81 12.7657 160.98 12.7737C161.865 12.7761 162.755 12.779 163.642 12.7845C164.356 12.789 165.075 12.7915 165.785 12.7925C166.057 12.7933 166.328 12.7947 166.6 12.797C168.702 12.8135 170.558 12.794 172.183 11.3091C173.078 10.3632 173.247 9.28892 173.216 8.01948C173.112 7.0558 172.793 6.06754 172.075 5.38505C170.642 4.27531 168.922 4.13335 167.175 4.14154C167.06 4.14152 166.945 4.1415 166.826 4.14148C166.452 4.14157 166.077 4.14263 165.703 4.1437C165.441 4.14396 165.18 4.14415 164.918 4.14429C164.233 4.14481 163.553 4.14615 162.871 4.14766C162.048 4.14931 161.219 4.14993 160.4 4.15073C159.153 4.15205 157.902 4.15466 156.66 4.15704L156.64 4.15428Z" fill="white"/>
<path d="M22.7338 3.33529C22.8689 3.47043 22.8689 3.47043 23.0068 3.60829C22.9819 4.17613 22.5945 4.49417 22.2219 4.88865C21.7387 5.40599 21.2691 5.92468 20.8296 6.47204C20.2795 6.27412 19.8263 6.00522 19.3418 5.68717C16.2432 3.73524 12.5851 3.14829 9.00878 3.88538C7.37079 4.26622 5.58265 5.03471 4.59986 6.45157C4.40876 7.02487 4.35962 7.51763 4.45517 8.11686C5.02027 9.24707 6.05221 9.83675 7.18515 10.3008C9.06884 10.8605 11.0208 11.1703 12.9591 11.5184C14.4196 11.7819 15.8529 12.0658 17.2861 12.4903C17.4472 12.5385 17.4472 12.5385 17.6123 12.5876C19.81 13.2728 22.0895 14.4713 23.2088 16.5734C23.9254 18.1704 23.909 19.8494 23.3372 21.4874C23.0779 22.1002 22.768 22.6067 22.3476 23.1254C22.2654 23.2276 22.1838 23.3301 22.0992 23.4352C20.2019 25.5509 16.803 26.3836 14.0594 26.561C9.06352 26.7699 3.8902 25.4909 -3.05176e-05 22.3023C0.0702666 21.7262 0.395817 21.4328 0.78484 21.0219C1.26805 20.5046 1.7376 19.9859 2.17713 19.4385C2.74497 19.6351 3.17085 19.919 3.65132 20.2739C6.99555 22.649 11.1588 23.6181 15.2128 23.0448C16.9327 22.7227 18.4478 22.1917 19.5671 20.7926C20.0462 19.8931 20.1363 19.1955 19.9166 18.2128C19.4825 17.3105 18.7672 16.7795 17.8554 16.3973C15.6032 15.6425 13.2145 15.2412 10.8803 14.8139C7.57704 14.2024 3.55031 13.3807 1.48917 10.4323C0.655164 9.04 0.434037 7.51121 0.75481 5.91417C1.28989 4.24888 2.6112 2.89754 4.13999 2.09219C5.83258 1.2964 7.55247 0.751772 9.40886 0.467854C9.52256 0.449972 9.63681 0.431954 9.75284 0.413527C14.23 -0.152945 18.9802 0.925399 22.7885 3.33461L22.7338 3.33529Z" fill="white"/>
<path d="M75.832 0.878299H79.3809V13.5727C80.7282 13.5498 80.7282 13.5498 81.5649 12.8902C81.6758 12.7795 81.7861 12.6691 81.9007 12.5544C82.0151 12.4399 82.13 12.3251 82.2474 12.2077C82.4999 11.9907 82.7566 11.7778 83.0145 11.5676C83.1407 11.4652 83.2671 11.3628 83.3967 11.2577C83.6834 11.0311 83.9728 10.8113 84.269 10.5957C85.047 10.0197 85.7705 9.37401 86.4939 8.73929C86.8952 8.39258 87.2979 8.04724 87.7019 7.70189C87.8616 7.5654 88.02 7.4289 88.1797 7.2924C88.4977 7.0194 88.8171 6.7464 89.1352 6.4734C89.2141 6.40583 89.2935 6.33827 89.374 6.26865C89.5338 6.13229 89.6921 5.99565 89.8518 5.85915C90.2517 5.51654 90.6517 5.17393 91.0516 4.82995C91.4488 4.4887 91.846 4.14882 92.2433 3.80894C92.403 3.67244 92.564 3.53457 92.7237 3.39671C92.9612 3.19333 93.1988 2.98994 93.4363 2.78656C93.5067 2.72582 93.5769 2.66507 93.6492 2.60228C94.1037 2.21599 94.5788 1.88839 95.0688 1.55806C95.2449 1.38335 95.2449 1.38335 95.4237 1.20453C95.9642 0.752719 96.4829 0.788209 97.1572 0.810049C97.2772 0.811014 97.3975 0.811974 97.5203 0.81297C97.9012 0.816778 98.282 0.825337 98.6628 0.833991C98.9222 0.837417 99.1815 0.840529 99.4409 0.843327C100.074 0.850835 100.708 0.862574 101.338 0.876633C100.971 1.24791 100.604 1.61509 100.208 1.95634C100.087 2.06049 100.087 2.06049 99.965 2.16655C99.8805 2.23917 99.7958 2.31124 99.7084 2.38631C99.6189 2.46357 99.5296 2.54056 99.4368 2.61973C99.161 2.85724 98.8839 3.09475 98.6082 3.33225C98.5255 3.40337 98.4431 3.47421 98.3571 3.54792C97.9626 3.88644 97.5681 4.22496 97.1736 4.56211C96.8446 4.8433 96.5184 5.12449 96.1908 5.40841C95.4633 6.03767 94.7439 6.6601 93.9659 7.22385C92.5463 8.27899 91.1267 9.44878 89.8709 10.7046C89.9701 10.827 90.0688 10.9489 90.1712 11.0759C90.9806 12.0791 91.7682 13.096 92.5463 14.1334C93.0554 14.8173 93.5782 15.4902 94.1024 16.1536C94.46 16.6068 94.8135 17.0613 95.163 17.5186C95.6735 18.1902 96.1976 18.8413 96.7464 19.4842C97.3674 20.2063 97.9435 20.9584 98.5072 21.7228C99.1255 22.5582 99.763 23.3744 100.405 24.1934C101.744 25.8997 101.744 25.8997 101.744 26.1317C101.147 26.1693 100.551 26.1963 99.9555 26.2142C99.7534 26.2217 99.5501 26.2319 99.348 26.245C97.6828 26.3501 97.6828 26.3501 96.9593 25.8314C96.6071 25.4492 96.3068 25.0575 96.0093 24.6302C95.8523 24.4323 95.694 24.2344 95.5356 24.0378C95.3964 23.8549 95.2585 23.6706 95.122 23.4864C94.9692 23.2843 94.8176 23.0823 94.6648 22.8817C94.5916 22.7842 94.5187 22.6865 94.4423 22.5868C94.1502 22.1992 93.8553 21.8156 93.5605 21.4307C93.4522 21.2901 93.3434 21.1495 93.2329 21.0048C92.7128 20.3319 92.19 19.6603 91.6631 18.9846C91.2345 18.4332 90.8073 17.8803 90.3841 17.3193C89.89 16.6723 89.3918 16.0403 88.8417 15.4493C88.641 15.205 88.641 15.205 88.5127 14.9265C88.3585 14.6016 88.2575 14.4542 87.9585 14.2495C87.0795 14.0297 86.1568 13.9519 85.3378 14.4187C84.7768 14.8337 84.2908 15.3169 83.809 15.811C83.495 16.1113 83.1347 16.3283 82.7716 16.5645C82.4276 16.8416 82.0959 17.1337 81.7642 17.4258C81.6744 17.5043 81.584 17.5828 81.4926 17.6633C81.1117 17.995 80.7336 18.3294 80.3583 18.6666C80.2149 18.7954 80.2149 18.7954 80.0675 18.9273C79.9878 18.9999 79.9078 19.072 79.8259 19.1471C79.6321 19.2931 79.6321 19.2931 79.3591 19.2931V26.1181H75.8101V0.865713L75.832 0.878299Z" fill="white"/>
<path d="M204.005 0.80595C204.209 0.828609 204.414 0.85195 204.619 0.877885C205.622 2.62508 206.585 4.37227 207.513 6.1604C208.363 7.81205 209.246 9.43639 210.161 11.0471C210.858 12.2933 211.526 13.545 212.181 14.8145C213.025 16.4388 213.901 18.0495 214.802 19.6465C215.518 20.9269 216.208 22.2127 216.877 23.5231C217.241 24.2261 217.614 24.9154 218.01 25.6115C218.132 25.8545 218.132 25.8545 218.132 26.1275C217.532 26.1593 216.932 26.1787 216.33 26.1958C216.159 26.2049 215.99 26.2141 215.814 26.2235C214.589 26.2497 214.589 26.2497 214.189 25.9191C214.008 25.6324 213.881 25.3499 213.755 25.0359C213.655 24.8557 213.552 24.6756 213.448 24.4968C212.543 22.8588 211.646 21.2208 210.759 19.5691C205.668 19.5241 200.576 19.479 195.335 19.4326C195.245 19.6579 195.155 19.8831 195.062 20.1151C194.906 20.4318 194.748 20.7458 194.587 21.0597C194.541 21.1494 194.495 21.2385 194.448 21.3313C194.35 21.5211 194.252 21.7108 194.154 21.8992C194.007 22.1845 193.861 22.4697 193.713 22.755C193.119 23.9084 192.507 25.0346 191.789 26.1266C191.406 26.1731 191.406 26.1731 190.926 26.1665L190.406 26.1625C190.226 26.1591 190.045 26.1557 189.86 26.1521C189.677 26.1501 189.494 26.1482 189.311 26.1466C188.862 26.1417 188.414 26.135 187.965 26.1266C189.149 23.7242 190.368 21.3491 191.705 19.0423C192.317 17.9817 192.879 16.8993 193.439 15.8073C194.291 14.1556 195.186 12.5177 196.087 10.907C196.711 9.79176 197.318 8.66837 197.902 7.53543C198.583 6.22094 199.267 4.91464 200.004 3.6179C200.25 3.17974 200.463 2.74567 200.651 2.28021C201.356 0.669519 202.358 0.669519 203.996 0.806018L204.005 0.80595ZM201.739 7.48076C201.604 7.73465 201.473 7.99127 201.344 8.24925C201.218 8.48676 201.09 8.72563 200.963 8.96314C200.834 9.2143 200.705 9.46546 200.576 9.71662C199.884 11.0543 199.17 12.3784 198.446 13.7024C198.354 13.8703 198.354 13.8703 198.261 14.0423C198.12 14.2975 197.978 14.5528 197.836 14.808C197.724 15.0114 197.724 15.0114 197.608 15.2175C197.539 15.3411 197.47 15.4646 197.399 15.5915C197.228 15.8809 197.227 15.8809 197.248 16.1703H208.987C208.06 14.3139 208.06 14.3139 207.103 12.4712C207.035 12.3407 206.967 12.2105 206.897 12.0753C205.983 10.3281 205.054 8.5946 204.072 6.88836C203.771 6.85136 203.47 6.82488 203.168 6.80304C203 6.78721 202.832 6.77138 202.659 6.755C202.08 6.9106 202.036 6.9925 201.736 7.4839L201.739 7.48076Z" fill="white"/>
<path d="M126.746 0.805958C126.951 0.828617 127.156 0.851958 127.36 0.877893C128.364 2.62508 129.326 4.37227 130.254 6.16041C131.105 7.81205 131.988 9.43639 132.902 11.0471C133.6 12.2933 134.267 13.545 134.923 14.8145C135.766 16.4388 136.642 18.0495 137.543 19.6465C138.26 20.9269 138.949 22.2127 139.618 23.5231C139.983 24.2261 140.355 24.9154 140.751 25.6115C140.873 25.8545 140.873 25.8545 140.873 26.1275C140.282 26.1794 139.691 26.2106 139.099 26.2384C138.932 26.2532 138.766 26.2681 138.594 26.2834C138.076 26.3016 137.682 26.2852 137.188 26.1278C136.747 25.6828 136.487 25.1846 136.224 24.6263C136.091 24.3478 135.948 24.0776 135.799 23.8073C135.487 23.2367 135.185 22.6621 134.883 22.0874C134.728 21.7912 134.574 21.4964 134.418 21.2015C134.322 21.02 134.227 20.8384 134.131 20.6555C133.936 20.2829 133.736 19.9294 133.502 19.5786C133.218 19.5155 133.218 19.5155 132.884 19.5241C132.754 19.5224 132.623 19.5207 132.489 19.5189C132.346 19.5191 132.203 19.5193 132.055 19.5195C131.83 19.5174 131.83 19.5174 131.599 19.5153C131.1 19.5111 130.6 19.5099 130.098 19.5087C129.752 19.5064 129.407 19.5039 129.062 19.5012C128.244 19.4954 127.424 19.4914 126.605 19.4882C125.674 19.4845 124.748 19.4786 123.807 19.4724C121.896 19.4597 119.971 19.4499 118.06 19.4421C118.019 19.5456 117.979 19.6496 117.937 19.756C117.754 20.2079 117.534 20.6365 117.312 21.0692C117.266 21.1588 117.22 21.248 117.173 21.3408C117.075 21.5305 116.978 21.7203 116.879 21.9086C116.732 22.1939 116.586 22.4792 116.438 22.7645C115.845 23.9179 115.232 25.044 114.514 26.136C114.132 26.1826 114.132 26.1826 113.651 26.176L113.131 26.172C112.951 26.1686 112.771 26.1651 112.585 26.1616C112.402 26.1596 112.219 26.1577 112.036 26.156C111.587 26.1512 111.139 26.1444 110.69 26.1361C111.874 23.7337 113.093 21.3586 114.43 19.0518C115.042 17.9912 115.604 16.9087 116.164 15.8167C117.016 14.1651 117.911 12.5271 118.812 10.9164C119.436 9.80122 120.043 8.67783 120.628 7.54489C121.309 6.2304 121.993 4.92411 122.73 3.62736C122.975 3.1892 123.188 2.75513 123.377 2.28967C124.081 0.67898 125.083 0.67898 126.721 0.815479L126.746 0.805958ZM124.48 7.48077C124.345 7.73466 124.214 7.99128 124.086 8.24926C123.959 8.48677 123.832 8.72564 123.705 8.96315C123.576 9.21431 123.447 9.46547 123.317 9.71663C122.625 11.0543 121.911 12.3784 121.188 13.7024C121.096 13.8703 121.096 13.8703 121.002 14.0423C120.862 14.2975 120.72 14.5528 120.578 14.808C120.465 15.0114 120.465 15.0114 120.35 15.2175C120.281 15.3411 120.212 15.4646 120.141 15.5916C119.969 15.8809 119.969 15.8809 119.99 16.1703H131.728C130.802 14.3139 130.802 14.3139 129.845 12.4712C129.777 12.3407 129.708 12.2105 129.639 12.0753C128.724 10.3281 127.796 8.5946 126.813 6.88836C126.513 6.85137 126.211 6.82489 125.909 6.80305C125.742 6.78722 125.574 6.77138 125.4 6.755C124.822 6.91061 124.778 6.99251 124.478 7.48391L124.48 7.48077Z" fill="white"/>
<path d="M49.4876 0.805978C49.6923 0.828637 49.8971 0.851978 50.1018 0.877913C51.1051 2.6251 52.0674 4.37229 52.9956 6.16043C53.846 7.81207 54.7292 9.43641 55.6437 11.0471C56.3412 12.2933 57.0087 13.545 57.6639 14.8145C58.5075 16.4388 59.3838 18.0495 60.2847 19.6466C61.0013 20.9269 61.6906 22.2127 62.3595 23.5231C62.7239 24.2261 63.0966 24.9154 63.4924 25.6116C63.6144 25.8545 63.6144 25.8545 63.6144 26.1275C63.0152 26.1593 62.4146 26.1787 61.8127 26.1958C61.642 26.2049 61.4728 26.2141 61.2967 26.2235C60.0723 26.2497 60.0723 26.2497 59.6723 25.9191C59.4908 25.6325 59.3639 25.3499 59.2383 25.036C59.1366 24.853 59.0322 24.6729 58.9257 24.4927C58.819 24.3016 58.7128 24.1105 58.6063 23.918C58.5491 23.8147 58.4919 23.7119 58.4329 23.6054C57.9593 22.7441 57.4952 21.8719 57.0406 21.012C56.9744 20.8872 56.9081 20.7622 56.84 20.6339C56.7792 20.518 56.7185 20.4018 56.6557 20.283C56.6015 20.18 56.5473 20.0769 56.4919 19.9705C56.3758 19.7152 56.3758 19.7152 56.3758 19.4422H40.8148C40.7248 19.6674 40.6347 19.8927 40.5418 20.1247C40.3862 20.4414 40.2279 20.7553 40.0668 21.0693C40.0207 21.159 39.9746 21.2481 39.9276 21.3409C39.83 21.5307 39.7324 21.7204 39.6341 21.9088C39.4867 22.194 39.3407 22.4793 39.1932 22.7646C38.5995 23.918 37.9866 25.0441 37.2686 26.1361C36.8864 26.1827 36.8864 26.1827 36.4059 26.1761L35.8859 26.1721C35.7057 26.1687 35.5255 26.1653 35.3399 26.1617C35.157 26.1597 34.974 26.1578 34.7911 26.1561C34.3421 26.1513 33.8943 26.1445 33.4453 26.1362C34.6287 23.7338 35.8476 21.3587 37.1853 19.0519C37.7968 17.9913 38.3592 16.9089 38.9189 15.8169C39.7706 14.1652 40.6661 12.5272 41.567 10.9165C42.1908 9.80134 42.7982 8.67796 43.3824 7.54501C44.0635 6.23052 44.7474 4.92423 45.4845 3.62748C45.7302 3.18932 45.9431 2.75525 46.1315 2.28979C46.8358 0.679102 47.8377 0.679102 49.4757 0.815601L49.4876 0.805978ZM47.2217 7.48079C47.0867 7.73468 46.9555 7.9913 46.8272 8.24928C46.7004 8.48679 46.5733 8.72566 46.4464 8.96317C46.317 9.21433 46.1884 9.46549 46.0587 9.71665C45.3667 11.0543 44.6528 12.3784 43.9293 13.7024C43.8373 13.8703 43.8373 13.8703 43.7437 14.0423C43.6031 14.2976 43.4612 14.5528 43.3192 14.8081C43.2066 15.0115 43.2066 15.0115 43.0912 15.2176C43.0222 15.3411 42.9534 15.4646 42.8824 15.5916C42.7104 15.8809 42.7104 15.8809 42.7309 16.1703H54.4698C53.543 14.3139 53.543 14.3139 52.5861 12.4712C52.5179 12.3407 52.4498 12.2105 52.38 12.0754C51.4655 10.3282 50.5373 8.59462 49.5545 6.88838C49.2542 6.85139 48.9525 6.82491 48.6509 6.80307C48.483 6.78724 48.3151 6.7714 48.1417 6.75502C47.563 6.91063 47.5193 6.99253 47.219 7.48393L47.2217 7.48079Z" fill="white"/>
</svg>
