<svg width="205" height="48" viewBox="0 0 205 48" fill="none" xmlns="http://www.w3.org/2000/svg">
<g clip-path="url(#clip0_4949_66)">
<path d="M7.684 30.0783C7.684 33.3832 8.52043 33.9751 10.9313 35.26V35.6546H0.151062V35.26C2.46359 33.9774 3.25084 33.3855 3.25084 30.0783V6.68638C3.25084 3.38147 2.46359 2.78955 0.151062 1.50704V1.11243H15.7065C22.8443 1.11243 28.6035 3.52945 28.6035 10.2424C28.6035 16.3619 23.4864 18.8292 18.4136 18.8785V19.0759C22.7926 19.6185 24.9118 21.7395 26.0932 25.3433L27.5201 29.4869C28.6518 32.9891 30.226 34.0767 33.1292 35.2611V35.6556H25.2577C24.3228 33.6333 24.0276 32.7453 23.0928 30.3258L21.5183 25.6398C20.1898 21.7923 18.8614 19.9149 14.1345 19.9149H7.68596L7.684 30.0783ZM14.9694 17.9379C19.6437 17.9379 23.6822 16.1621 23.6822 10.2887C23.6822 5.1094 20.1396 3.03421 14.9694 3.03421H7.684V17.9379H14.9694Z" fill="white"/>
<path d="M38.8457 26.4664C38.8457 29.8785 40.2298 33.0959 44.1353 33.0959C48.0404 33.0959 51.1084 29.7827 51.1084 23.9428V16.1753C51.1084 13.406 49.6747 12.4664 47.6975 11.2301V10.9334H55.5626V30.1274C55.5626 33.4902 56.2545 33.9352 58.4297 35.3222V35.6684H51.111V29.4344C49.7266 33.7887 46.6618 36.1635 42.357 36.1635C37.2651 36.1635 34.4434 32.8006 34.4434 27.4061V16.1753C34.4434 13.406 32.9604 12.4664 31.0325 11.2301V10.9334H38.8472L38.8457 26.4664Z" fill="white"/>
<path d="M63.9686 23.5796C63.9686 16.9208 67.0788 12.9255 71.769 12.9255C75.2248 12.9255 79.2732 15.3917 79.2732 20.8668V24.2208C79.2732 29.0545 76.2616 33.3459 71.6702 33.3459C66.8321 33.3459 63.9686 29.4986 63.9686 23.5796ZM59.1302 23.5796C59.1302 31.57 63.8698 36.1079 70.1397 36.1079C74.83 36.1079 78.0883 33.0991 79.2732 29.4987L79.3225 35.5162C79.3225 41.9283 77.1502 45.6277 72.0651 45.6277C68.4118 45.6277 64.7091 42.9641 63.9686 38.0318L59.1798 39.3141C60.6607 45.8742 66.0421 47.8472 70.9297 47.8472C78.8781 47.8472 83.6669 43.5067 83.7164 35.5162V21.7546C83.7164 17.2661 83.7164 13.4187 84.4076 10.4593H83.7657C81.9885 11.4458 80.4581 13.2708 79.8655 15.4904C78.6806 12.8762 75.3234 10.4593 70.7816 10.4593C64.4623 10.4593 59.1302 15.589 59.1302 23.5796Z" fill="white"/>
<path d="M91.9746 23.5796C91.9746 16.9208 95.0848 12.9255 99.775 12.9255C103.231 12.9255 107.279 15.3917 107.279 20.8668V24.2208C107.279 29.0545 104.268 33.3459 99.6762 33.3459C94.8381 33.3459 91.9746 29.4986 91.9746 23.5796ZM87.1362 23.5796C87.1362 31.57 91.8757 36.1079 98.1457 36.1079C102.836 36.1079 106.094 33.0991 107.279 29.4987L107.328 35.5162C107.328 41.9283 105.156 45.6277 100.071 45.6277C96.4178 45.6277 92.7151 42.9641 91.9746 38.0318L87.1858 39.3141C88.6667 45.8742 94.0481 47.8472 98.9357 47.8472C106.884 47.8472 111.673 43.5067 111.722 35.5162V21.7546C111.722 17.2661 111.722 13.4187 112.414 10.4593H111.772C109.995 11.4458 108.464 13.2708 107.871 15.4904C106.687 12.8762 103.329 10.4593 98.7876 10.4593C92.4683 10.4593 87.1362 15.589 87.1362 23.5796Z" fill="white"/>
<path d="M139.963 10.4253H140.607C139.913 13.3936 139.913 17.256 139.913 21.7599V30.1248C139.913 33.4889 140.607 33.9341 142.788 35.3219V35.6682H135.501L135.451 29.5305C134.261 33.1422 130.991 36.1635 126.278 36.1635C119.981 36.1635 115.221 31.6094 115.221 23.5914C115.221 15.5734 120.574 10.4253 126.923 10.4253C131.482 10.4253 134.856 12.8494 136.046 15.474C136.641 13.2467 138.178 11.4152 139.963 10.4253ZM135.453 20.869C135.453 15.3775 131.389 12.9004 127.916 12.9004C123.208 12.9004 120.082 16.9077 120.082 23.5914C120.082 29.5281 122.956 33.3915 127.817 33.3915C132.426 33.3915 135.453 29.0874 135.453 24.2346V20.869Z" fill="white"/>
<path d="M145.458 36.1635H144.869C145.507 33.2025 145.507 29.3501 145.507 24.9561V6.4418C145.507 3.67833 144.083 2.74072 142.07 1.55637V1.11224H149.93V17.1063C151.108 13.4546 154.349 10.4903 159.018 10.4903C165.209 10.4903 169.974 15.0327 169.974 22.9318C169.974 31.0288 164.671 36.1635 158.33 36.1635C153.813 36.1635 150.569 33.7454 149.291 31.0781C148.749 33.3493 147.227 35.176 145.458 36.1635ZM149.926 25.7955C149.926 31.1251 153.953 33.6454 157.345 33.6454C162.01 33.6454 165.156 29.6974 165.156 22.9318C165.156 17.1063 162.259 13.2552 157.492 13.2552C152.975 13.2552 149.926 17.5979 149.926 22.4384V25.7955Z" fill="white"/>
<path d="M178.327 30.2762C178.327 33.532 179.019 33.9759 181.145 35.3102V35.6554H171.204V35.3102C173.33 33.9783 174.022 33.5344 174.022 30.2762V6.24234C174.022 3.5293 172.539 2.6414 170.66 1.45754V1.11224H178.327L178.327 30.2762Z" fill="white"/>
<path d="M205 22.8476H187.107C187.107 29.3803 190.251 33.4388 195.611 33.4388C199.443 33.4388 202.198 31.5588 203.722 27.651L204.753 27.9972C203.623 33.1913 199.938 36.1635 194.283 36.1635C187.696 36.1635 182.338 31.61 182.338 23.5926C182.338 15.5754 187.598 10.4253 194.088 10.4253C201.018 10.4253 205 15.0283 205 22.8476ZM200.232 20.9184C200.133 16.6147 198.856 12.4555 194.038 12.4555C190.058 12.4555 187.648 15.8687 187.205 20.9184H200.232Z" fill="white"/>
</g>
<defs>
<clipPath id="clip0_4949_66">
<rect width="205" height="47" fill="white" transform="translate(0 0.924194)"/>
</clipPath>
</defs>
</svg>
